 <svg version="1.0" xmlns="http://www.w3.org/2000/svg" width="700.000000pt" height="1063.000000pt" viewBox="0 0 700.000000 1063.000000" preserveAspectRatio="xMidYMid meet">
<metadata>
Created by potrace 1.12, written by Peter Selinger 2001-2015
</metadata>
<g transform="translate(0.000000,1063.000000) scale(0.100000,-0.100000)" fill="#000000" stroke="none">
<path d="M0 5315 l0 -5315 3500 0 3500 0 0 5315 0 5315 -3500 0 -3500 0 0
-5315z m2683 4393 c12 -7 24 -15 27 -18 12 -14 119 -60 138 -60 11 0 22 -3 24
-8 4 -9 189 -102 204 -102 6 0 50 -20 98 -45 49 -25 94 -45 102 -45 14 0 54
-19 64 -31 3 -3 23 -13 45 -23 22 -9 57 -26 78 -37 22 -10 47 -19 58 -19 10 0
19 -3 19 -8 0 -4 15 -13 33 -21 76 -32 102 -46 108 -54 9 -12 181 -9 193 3 6
6 40 10 77 10 37 0 70 4 73 8 4 7 176 26 211 23 39 -3 86 -15 91 -22 3 -5 14
-9 25 -9 27 0 109 -85 139 -144 22 -43 25 -62 25 -153 0 -62 4 -103 10 -103 6
0 32 -11 59 -25 27 -14 58 -25 68 -25 10 0 18 -3 18 -8 0 -4 12 -12 28 -19 15
-6 46 -20 70 -30 23 -10 42 -21 42 -25 0 -5 8 -8 18 -8 10 0 41 -11 68 -25 27
-14 54 -25 61 -25 6 0 13 -3 15 -7 4 -11 87 -53 102 -53 6 0 52 -20 100 -45
49 -25 94 -45 100 -45 12 0 159 -71 166 -81 5 -7 48 -22 65 -24 19 -2 95 -40
95 -47 0 -5 9 -8 20 -8 11 0 20 -4 20 -9 0 -5 13 -12 30 -16 16 -4 32 -11 35
-16 4 -5 17 -9 31 -9 13 0 24 -4 24 -10 0 -5 9 -10 20 -10 11 0 20 -3 20 -8 0
-4 15 -13 33 -21 17 -7 45 -20 61 -27 16 -8 37 -14 47 -14 9 0 19 -3 21 -8 4
-9 189 -102 204 -102 6 0 60 -25 119 -55 60 -30 117 -55 127 -55 10 0 18 -4
18 -10 0 -5 5 -10 12 -10 15 0 122 -52 126 -62 2 -4 12 -8 21 -8 10 0 31 -6
47 -14 16 -7 44 -20 62 -27 17 -8 32 -17 32 -21 0 -5 9 -8 20 -8 11 0 20 -3
20 -8 0 -9 45 -28 88 -37 20 -4 32 -12 32 -23 0 -17 -537 -562 -554 -562 -5 0
-231 -222 -502 -494 -272 -272 -499 -496 -505 -498 -7 -2 -223 -215 -480 -473
l-469 -469 0 -63 c0 -34 -4 -65 -10 -68 -6 -4 -10 -60 -10 -136 l0 -129 24 0
c14 0 27 4 30 9 3 5 69 12 146 16 77 4 140 11 140 16 0 5 31 9 69 9 39 0 73 4
76 10 3 6 39 10 80 10 41 0 77 5 80 10 3 6 37 10 75 10 38 0 71 4 74 9 3 5 67
12 141 16 74 4 138 11 141 16 3 5 36 9 75 9 39 0 69 4 69 10 0 6 33 10 79 10
44 0 83 5 86 10 3 6 37 10 75 10 38 0 72 5 75 11 4 6 32 9 66 8 32 -1 62 1 66
4 3 4 37 7 75 7 39 0 68 4 68 10 0 6 30 10 69 10 39 0 73 4 76 10 3 5 37 10
75 10 38 0 72 5 75 10 3 6 24 10 46 10 21 0 39 -4 39 -10 0 -5 -5 -10 -11 -10
-6 0 -23 -12 -38 -27 -28 -29 -53 -47 -86 -62 -11 -5 -31 -21 -44 -35 -14 -14
-30 -26 -36 -26 -6 0 -22 -11 -35 -25 -13 -14 -29 -25 -35 -25 -6 0 -24 -14
-40 -30 -16 -16 -34 -30 -40 -30 -7 0 -21 -11 -31 -25 -10 -14 -24 -25 -30
-25 -6 0 -21 -11 -34 -25 -13 -14 -29 -25 -35 -25 -6 0 -24 -13 -40 -30 -16
-16 -34 -30 -40 -30 -6 0 -22 -11 -35 -25 -13 -14 -29 -25 -35 -25 -7 0 -20
-9 -30 -20 -10 -11 -24 -20 -30 -20 -7 0 -21 -11 -31 -25 -10 -14 -24 -25 -30
-25 -6 0 -21 -11 -34 -25 -13 -14 -29 -25 -35 -25 -6 0 -24 -14 -40 -30 -16
-16 -34 -30 -40 -30 -6 0 -22 -11 -35 -25 -13 -14 -28 -25 -33 -25 -9 0 -47
-30 -114 -90 -12 -11 -26 -20 -31 -20 -5 0 -19 -11 -32 -25 -13 -14 -29 -25
-35 -25 -7 0 -20 -9 -30 -20 -10 -11 -23 -20 -30 -20 -6 0 -22 -11 -35 -25
-13 -14 -29 -25 -36 -25 -6 0 -22 -13 -35 -30 -13 -16 -29 -30 -34 -30 -6 0
-22 -11 -37 -25 -15 -14 -31 -25 -36 -25 -4 0 -21 -14 -37 -30 -16 -17 -34
-30 -40 -30 -6 0 -22 -11 -35 -25 -13 -14 -29 -25 -35 -25 -6 0 -22 -11 -35
-25 -13 -14 -28 -25 -33 -25 -5 0 -21 -12 -36 -27 -28 -29 -53 -47 -86 -62
-11 -5 -31 -21 -44 -35 -14 -14 -30 -26 -36 -26 -6 0 -22 -11 -35 -25 -13 -14
-29 -25 -35 -25 -6 0 -22 -11 -35 -25 -13 -14 -28 -25 -33 -25 -5 0 -22 -13
-37 -30 -15 -16 -32 -30 -37 -30 -5 0 -20 -11 -33 -25 -13 -14 -29 -25 -35
-25 -6 0 -24 -14 -40 -30 -16 -17 -34 -30 -40 -30 -6 0 -22 -11 -35 -25 -13
-14 -29 -25 -35 -25 -7 0 -20 -9 -30 -20 -10 -11 -24 -20 -30 -20 -7 0 -21
-11 -31 -25 -10 -14 -24 -25 -30 -25 -6 0 -21 -11 -34 -25 -13 -14 -29 -25
-35 -25 -6 0 -24 -14 -40 -30 -16 -17 -34 -30 -40 -30 -6 0 -22 -11 -35 -25
-13 -14 -28 -25 -33 -25 -9 0 -47 -30 -114 -90 -12 -11 -26 -20 -31 -20 -5 0
-19 -11 -32 -25 -13 -14 -29 -25 -35 -25 -7 0 -20 -9 -30 -20 -10 -11 -23 -20
-30 -20 -6 0 -22 -11 -35 -25 -13 -14 -29 -25 -36 -25 -7 0 -19 -8 -26 -18 -7
-10 -26 -27 -43 -38 -16 -10 -37 -26 -46 -36 -9 -10 -21 -18 -26 -18 -5 0 -20
-11 -33 -25 -13 -14 -29 -25 -35 -25 -6 0 -24 -13 -40 -30 -16 -16 -34 -30
-40 -30 -6 0 -22 -11 -35 -25 -13 -14 -28 -25 -35 -25 -6 0 -17 -9 -25 -20 -8
-11 -19 -20 -25 -20 -6 0 -22 -11 -37 -25 -15 -14 -31 -25 -36 -25 -4 0 -21
-14 -37 -30 -16 -17 -34 -30 -40 -30 -6 0 -22 -11 -35 -25 -13 -14 -29 -25
-35 -25 -6 0 -22 -11 -35 -25 -13 -14 -28 -25 -33 -25 -5 0 -22 -13 -37 -30
-15 -16 -32 -30 -37 -30 -4 0 -20 -11 -35 -25 -15 -14 -31 -25 -36 -25 -5 0
-19 -11 -32 -25 -13 -14 -29 -25 -35 -25 -7 0 -20 -9 -30 -20 -10 -11 -22 -20
-28 -20 -9 0 -42 -26 -110 -86 -15 -13 -31 -24 -35 -24 -5 0 -19 -11 -32 -25
-13 -14 -29 -25 -35 -25 -6 0 -24 -14 -40 -30 -16 -17 -34 -30 -40 -30 -6 0
-22 -11 -35 -25 -13 -14 -29 -25 -35 -25 -6 0 -22 -11 -35 -25 -13 -14 -28
-25 -33 -25 -5 0 -21 -12 -36 -27 -28 -29 -53 -47 -86 -62 -11 -5 -31 -21 -44
-35 -14 -14 -30 -26 -36 -26 -6 0 -22 -11 -35 -25 -13 -14 -28 -25 -33 -25 -9
0 -47 -30 -114 -90 -12 -11 -26 -20 -31 -20 -5 0 -19 -11 -32 -25 -13 -14 -29
-25 -35 -25 -6 0 -24 -14 -40 -30 -16 -17 -34 -30 -40 -30 -6 0 -22 -11 -35
-25 -13 -14 -29 -25 -37 -25 -7 0 -13 -3 -13 -7 0 -5 -21 -21 -45 -38 -25 -16
-45 -33 -45 -37 0 -5 -6 -8 -13 -8 -8 0 -24 -11 -37 -25 -13 -14 -29 -25 -35
-25 -6 0 -24 -13 -40 -30 -16 -16 -34 -30 -40 -30 -6 0 -22 -11 -35 -25 -13
-14 -27 -25 -32 -25 -4 0 -22 -13 -40 -30 -17 -16 -35 -30 -39 -30 -4 0 -19
-11 -33 -25 -14 -14 -29 -25 -34 -25 -5 0 -19 -11 -32 -25 -13 -14 -29 -25
-35 -25 -7 0 -20 -9 -30 -20 -10 -11 -23 -20 -30 -20 -6 0 -22 -11 -35 -25
-13 -14 -28 -25 -33 -25 -5 0 -22 -13 -37 -30 -15 -16 -32 -30 -37 -30 -4 0
-20 -11 -35 -25 -28 -25 -58 -33 -58 -15 0 6 5 10 10 10 6 0 10 6 10 13 0 7
25 37 55 67 30 30 55 59 55 65 0 6 27 37 60 70 33 33 60 64 60 70 0 6 25 35
55 65 30 30 55 59 55 64 0 5 25 34 55 63 30 29 62 65 72 80 10 16 37 46 60 67
24 22 43 45 43 51 0 6 29 40 65 75 36 35 65 69 65 75 0 6 25 35 55 65 30 30
55 59 55 65 0 6 27 37 60 70 33 33 60 63 60 68 0 5 25 34 55 64 30 31 55 59
55 64 0 4 27 36 59 71 124 132 171 185 171 194 0 5 29 39 65 74 36 35 65 69
65 75 0 6 25 35 55 65 30 30 55 59 55 65 0 5 27 37 60 69 33 33 60 63 60 68 0
5 25 33 55 63 30 29 55 57 55 62 0 5 29 38 65 73 36 35 65 69 65 75 0 6 23 33
50 60 28 27 50 54 50 60 0 6 29 40 65 75 36 35 65 69 65 75 0 5 19 29 43 51
23 23 56 59 72 80 16 22 48 57 72 78 24 22 43 44 43 50 0 6 26 37 58 69 l57
59 -185 -7 c-102 -4 -189 -11 -194 -16 -6 -5 -52 -9 -103 -9 -55 0 -93 -4 -93
-10 0 -6 -40 -10 -100 -10 -60 0 -100 -4 -100 -10 0 -6 -40 -10 -100 -10 -55
0 -100 -4 -100 -9 0 -5 -86 -12 -190 -16 -105 -4 -193 -11 -196 -16 -3 -5 -50
-9 -105 -9 -59 0 -99 -4 -99 -10 0 -6 -38 -10 -94 -10 -53 0 -98 -4 -101 -10
-9 -15 -154 -13 -168 3 -16 17 -35 47 -46 72 -5 12 -16 27 -25 34 -9 7 -16 19
-16 26 0 7 -7 19 -16 26 -9 7 -20 22 -25 34 -13 29 -32 57 -50 75 -8 8 -23 31
-33 50 -26 52 -40 76 -56 95 -15 18 -34 48 -46 75 -4 8 -15 22 -24 30 -9 8
-24 31 -34 50 -29 57 -42 79 -59 98 -10 10 -17 22 -17 26 0 5 -11 22 -25 40
-14 17 -29 36 -33 41 -4 6 -15 26 -25 46 -9 20 -23 42 -32 49 -8 7 -15 17 -15
23 0 6 -7 19 -17 29 -9 10 -13 21 -9 26 8 7 118 18 291 28 50 3 94 10 99 15 6
5 41 9 78 9 39 0 68 4 68 10 0 6 30 10 71 10 l70 0 -6 147 c-3 82 -8 258 -11
392 -2 135 -9 250 -13 255 -5 6 -12 199 -16 429 -4 229 -11 420 -16 423 -5 3
-9 102 -9 220 0 136 -4 214 -10 214 -6 0 -10 78 -10 214 0 118 -4 217 -9 220
-5 3 -12 199 -16 436 -4 237 -11 433 -16 436 -5 3 -9 102 -9 220 0 136 -4 214
-10 214 -13 0 -14 363 -1 388 5 9 17 33 26 52 35 74 47 91 70 100 13 5 26 13
29 19 16 25 77 43 164 48 51 3 95 10 98 14 3 5 34 9 69 9 35 0 67 5 70 10 3 6
37 10 74 10 37 0 71 4 76 9 6 5 39 12 75 15 300 26 359 32 366 39 4 4 38 7 75
7 37 0 71 5 74 10 3 6 37 10 76 10 39 0 69 4 69 10 0 6 30 10 69 10 39 0 72 4
75 9 3 5 71 12 151 16 80 4 148 11 151 16 3 5 36 9 75 9 39 0 69 4 69 10 0 6
30 10 70 10 l71 0 -18 25 c-10 13 -24 25 -31 25 -7 0 -32 20 -55 45 -24 25
-48 45 -53 45 -6 0 -30 20 -54 45 -24 25 -49 45 -55 45 -6 0 -31 20 -55 45
-24 25 -49 45 -55 45 -6 0 -31 20 -55 45 -24 25 -48 45 -54 45 -5 0 -29 20
-53 45 -23 25 -48 45 -54 45 -11 0 -48 39 -49 53 0 11 17 9 43 -5z"></path>
<path d="M4107 9073 c-46 -7 -32 -24 48 -60 22 -9 42 -19 45 -22 3 -4 15 -12
28 -19 20 -11 22 -10 22 12 0 14 5 28 10 31 6 3 10 19 10 36 l0 29 -67 -1
c-38 -1 -81 -4 -96 -6z"></path>
<path d="M3330 8983 c-36 -2 -69 -8 -74 -14 -6 -5 -40 -9 -77 -9 -37 0 -71 -4
-74 -10 -3 -5 -37 -10 -76 -10 -39 0 -69 -4 -69 -10 0 -6 -33 -10 -79 -10 -44
0 -82 -4 -85 -9 -3 -5 -67 -12 -141 -16 -74 -4 -138 -11 -141 -16 -3 -5 -36
-9 -75 -9 -39 0 -69 -4 -69 -10 0 -6 -31 -10 -73 -10 -40 0 -77 -4 -82 -9 -10
-9 -83 -17 -223 -25 -35 -2 -66 -7 -69 -10 -4 -3 -37 -6 -75 -6 -39 0 -68 -4
-68 -10 0 -6 -30 -10 -69 -10 -39 0 -73 -4 -76 -10 -3 -5 -39 -10 -80 -10 -41
0 -77 -4 -80 -10 -3 -5 -37 -10 -76 -10 l-69 0 0 -133 c0 -73 4 -137 10 -143
5 -5 11 -106 14 -224 12 -533 32 -1079 39 -1086 4 -4 7 -103 7 -220 0 -131 4
-215 10 -219 6 -4 10 -86 10 -214 0 -119 4 -211 10 -217 5 -5 11 -104 14 -219
13 -532 32 -1064 39 -1071 4 -4 7 -103 7 -220 0 -131 4 -215 10 -219 6 -3 10
-35 10 -71 l0 -64 1278 0 c981 0 1281 3 1290 12 8 8 12 64 12 184 0 105 4 175
10 179 6 4 10 90 10 224 0 120 3 221 8 225 6 7 26 623 38 1179 3 142 9 237 14
237 6 0 10 90 10 234 0 146 4 237 10 241 6 4 10 94 10 239 0 127 4 236 9 242
12 13 25 784 13 784 -5 0 -30 20 -55 45 -26 25 -50 45 -54 45 -5 0 -29 20 -53
45 -24 25 -49 45 -55 45 -6 0 -31 20 -55 45 -24 25 -49 45 -55 45 -6 0 -31 20
-55 45 -24 25 -49 45 -55 45 -5 1 -30 21 -55 45 -25 25 -48 45 -53 45 -4 0
-27 20 -50 45 -24 25 -48 45 -54 45 -5 0 -20 11 -33 25 -25 27 -33 27 -210 18z
m-850 -857 c0 -14 4 -27 9 -31 6 -3 13 -26 17 -50 3 -25 10 -48 15 -51 5 -3 9
-16 9 -30 0 -13 5 -24 10 -24 6 0 10 -11 10 -24 0 -14 5 -28 10 -31 6 -3 10
-17 10 -30 0 -13 4 -26 9 -30 6 -3 13 -26 17 -50 3 -25 10 -48 15 -51 5 -3 9
-16 9 -30 0 -13 5 -24 10 -24 6 0 10 -11 10 -24 0 -14 5 -28 10 -31 6 -3 10
-17 10 -30 0 -13 4 -26 9 -30 6 -3 13 -26 17 -50 3 -25 10 -48 15 -51 5 -3 9
-16 9 -30 0 -13 5 -24 10 -24 6 0 10 -10 10 -23 0 -13 4 -27 9 -33 5 -5 11
-25 14 -44 3 -30 4 -28 5 13 1 26 7 47 12 47 6 0 10 28 10 65 0 37 4 65 10 65
6 0 10 -15 10 -34 0 -19 5 -38 10 -41 6 -4 10 -56 10 -124 l0 -118 25 0 25 0
0 208 c0 128 4 210 10 214 6 3 10 37 10 75 0 38 5 72 10 75 6 3 10 35 10 71 0
36 4 64 10 64 6 0 10 -30 10 -69 0 -39 5 -73 10 -76 6 -4 10 -68 10 -161 0
-142 1 -154 18 -154 10 0 24 -6 31 -12 11 -11 12 4 6 84 -9 122 3 320 19 315
7 -2 11 -32 12 -75 0 -39 3 -75 7 -78 4 -4 7 -47 7 -96 0 -52 4 -88 10 -88 6
0 10 5 10 10 0 26 30 5 49 -33 30 -61 28 -99 -5 -114 -33 -15 -44 -9 -44 23 0
14 -4 22 -10 19 -5 -3 -10 -31 -10 -61 l0 -55 46 3 c35 2 50 8 58 23 6 11 12
22 14 24 1 3 8 -4 16 -14 12 -17 15 -17 46 -2 31 16 34 16 46 -1 7 -9 14 -26
14 -36 0 -16 3 -17 12 -8 21 21 67 15 77 -10 10 -26 3 -85 -10 -94 -5 -3 -9
-13 -9 -22 0 -10 37 21 95 78 52 52 95 99 95 105 0 13 212 225 225 225 6 0 26
16 45 35 19 19 39 35 46 35 6 0 20 11 30 25 18 25 54 34 54 15 0 -5 -4 -10 -8
-10 -4 0 -15 -13 -25 -29 -9 -15 -46 -57 -82 -93 -36 -36 -65 -69 -65 -74 0
-5 -31 -41 -70 -79 -38 -38 -70 -74 -70 -79 0 -6 -26 -36 -57 -68 l-57 -58 51
0 c29 0 55 -4 58 -10 3 -5 3 -10 -2 -10 -4 0 -13 -11 -20 -25 -10 -23 -9 -25
12 -25 13 0 27 -4 30 -10 3 -5 34 -10 69 -10 57 0 86 -11 86 -32 0 -4 -27 -8
-60 -8 -33 0 -60 -4 -60 -10 0 -5 -25 -10 -55 -10 l-55 0 0 -35 c0 -19 -4 -35
-10 -35 -5 0 -10 5 -10 11 0 17 -21 -1 -30 -27 -5 -13 -16 -24 -25 -24 -19 0
-19 -2 5 -44 11 -21 15 -38 10 -41 -18 -11 -10 -35 10 -35 11 0 20 -4 20 -10
0 -5 -10 -10 -22 -10 -20 0 -18 -4 17 -40 21 -22 43 -40 47 -40 4 0 8 14 8 30
0 17 -4 30 -10 30 -5 0 -10 5 -10 10 0 6 14 10 31 10 32 0 49 12 64 45 8 18 9
18 13 -7 4 -31 14 -35 32 -13 15 18 37 20 43 3 11 -32 21 9 18 77 l-2 75 91 0
c91 0 106 -5 71 -27 -11 -7 -22 -27 -26 -45 -9 -43 -28 -88 -37 -88 -5 0 -8
-9 -8 -20 0 -11 -4 -20 -10 -20 -5 0 -10 -11 -10 -24 0 -14 -4 -27 -9 -31 -5
-3 -12 -19 -16 -35 -7 -33 -25 -41 -25 -12 0 10 -5 23 -12 30 -9 9 -9 15 0 24
15 15 16 48 2 48 -5 0 -10 -11 -10 -25 0 -14 -5 -25 -12 -25 -16 0 -78 -61
-78 -77 0 -7 11 -13 24 -13 19 0 25 -6 28 -30 3 -16 0 -34 -6 -40 -7 -7 -1
-19 18 -39 19 -20 24 -31 16 -36 -6 -4 -17 -2 -23 4 -6 6 -21 11 -34 11 -13 0
-23 5 -23 10 0 6 -6 10 -13 10 -9 0 -13 -12 -12 -37 1 -40 5 -44 78 -72 41
-16 52 -51 17 -51 -11 0 -20 5 -20 10 0 6 -5 10 -11 10 -6 0 -26 7 -45 16 -27
13 -37 14 -49 4 -8 -7 -21 -10 -29 -7 -7 3 -18 1 -24 -5 -14 -14 -31 -2 -43
29 -5 14 -18 27 -29 30 -11 3 -20 10 -20 15 0 6 -7 5 -15 -2 -19 -16 -19 -54
0 -70 8 -7 15 -16 15 -21 0 -5 -7 -9 -15 -9 -17 0 -20 -16 -5 -25 6 -3 10 -26
10 -51 l0 -44 50 0 c28 0 50 -4 50 -10 0 -6 28 -10 63 -10 59 0 117 -16 117
-32 0 -5 -27 -8 -59 -8 -33 0 -63 -4 -66 -10 -3 -5 -34 -10 -68 -11 -34 0 -55
-3 -47 -6 21 -8 140 -125 140 -138 0 -7 11 -22 25 -35 14 -13 25 -29 25 -35 0
-6 11 -22 25 -35 14 -13 25 -28 25 -33 0 -5 13 -22 30 -37 17 -15 30 -32 30
-37 0 -5 11 -20 25 -33 14 -13 25 -29 25 -35 0 -6 11 -22 25 -35 14 -13 25
-29 25 -35 0 -7 9 -20 20 -30 20 -18 27 -45 12 -45 -5 0 -19 11 -32 25 -13 14
-28 25 -33 25 -9 0 -42 26 -110 86 -15 13 -31 24 -35 24 -5 0 -19 11 -32 25
-13 14 -29 25 -35 25 -6 0 -24 14 -40 30 -16 17 -34 30 -40 30 -6 0 -22 11
-35 25 -13 14 -29 25 -37 25 -7 0 -13 5 -13 11 0 5 -4 7 -10 4 -22 -14 -11
-71 20 -100 17 -16 30 -33 30 -39 0 -13 131 -146 144 -146 12 0 46 -31 46 -42
0 -4 -5 -8 -12 -8 -15 0 -122 52 -126 62 -2 4 -12 8 -23 8 -10 0 -19 4 -19 10
0 5 -17 12 -37 16 -21 4 -43 11 -49 15 -6 5 -21 8 -34 7 -14 -2 -27 5 -34 17
-6 11 -26 35 -43 53 -18 18 -33 38 -33 44 0 6 -16 24 -35 41 -19 16 -35 34
-35 40 0 13 -30 47 -42 47 -4 0 -8 -11 -8 -24 0 -14 -4 -28 -10 -31 -5 -3 -10
-17 -10 -31 0 -13 -4 -24 -10 -24 -5 0 -10 -20 -10 -45 0 -25 5 -45 10 -45 6
0 10 -4 10 -10 0 -5 -9 -10 -20 -10 -14 0 -20 -7 -20 -21 0 -21 21 -49 38 -49
4 0 19 -11 32 -25 20 -22 21 -25 6 -31 -13 -5 -15 -14 -10 -40 3 -19 2 -34 -3
-34 -16 0 -63 25 -63 33 0 5 -4 5 -10 2 -5 -3 -10 -26 -10 -50 0 -24 5 -47 10
-50 6 -3 10 -17 10 -31 0 -13 5 -24 10 -24 6 0 10 -11 10 -24 0 -14 5 -28 10
-31 6 -3 10 -19 10 -34 0 -15 5 -32 10 -37 14 -14 9 -174 -5 -175 -5 0 -14 18
-19 40 -6 23 -13 41 -18 41 -4 0 -8 11 -8 24 0 14 -4 28 -10 31 -5 3 -10 16
-10 29 0 12 -4 26 -9 32 -5 5 -11 18 -14 29 -3 11 -5 1 -6 -22 0 -23 -5 -45
-11 -48 -13 -8 -13 -102 0 -110 6 -4 10 -68 10 -160 0 -92 4 -156 10 -160 6
-3 10 -19 10 -35 0 -16 -4 -32 -10 -35 -5 -3 -10 3 -10 15 0 11 -4 29 -10 40
-5 11 -14 29 -20 40 -5 11 -10 29 -10 39 0 11 -4 23 -10 26 -5 3 -10 17 -10
30 0 13 -4 27 -10 30 -5 3 -10 14 -10 23 0 9 -7 30 -15 46 -8 15 -15 37 -15
47 0 11 -4 19 -10 19 -5 0 -10 11 -10 24 0 14 -4 28 -10 31 -5 3 -10 17 -10
30 0 13 -4 26 -9 30 -6 3 -13 26 -17 50 -3 25 -10 48 -15 51 -5 3 -9 16 -9 30
0 13 -4 24 -10 24 -5 0 -10 8 -11 18 -1 18 -4 12 -24 -45 -4 -13 -11 -23 -16
-23 -11 0 0 169 13 196 5 12 8 32 6 44 -2 19 -9 12 -35 -40 -18 -34 -33 -71
-33 -82 0 -11 -4 -16 -10 -13 -5 3 -10 19 -10 35 0 16 5 32 10 35 6 3 10 33
10 65 0 32 5 62 10 65 13 8 13 152 0 160 -8 5 -8 11 0 20 8 9 6 14 -5 19 -12
4 -15 -5 -15 -57 0 -35 -4 -67 -9 -73 -5 -5 -11 -26 -13 -47 -4 -51 -19 -51
-43 1 -22 46 -44 51 -60 14 -5 -12 -13 -22 -17 -22 -5 0 -8 -9 -8 -20 0 -11
-4 -20 -10 -20 -5 0 -10 -11 -10 -25 0 -49 -18 -24 -24 34 -8 68 -25 107 -61
141 -36 34 -36 96 1 110 35 14 34 14 34 -20 0 -16 5 -30 10 -30 6 0 10 11 10
25 0 19 5 25 23 25 13 0 28 5 35 12 9 9 15 9 24 0 7 -7 38 -12 70 -12 58 0 58
0 58 29 0 30 -21 54 -28 33 -5 -17 -22 -15 -22 3 0 8 -4 15 -9 15 -5 0 -14 -7
-21 -15 -17 -20 -44 -20 -36 1 3 9 6 19 6 24 0 4 9 10 20 13 13 3 20 14 20 29
0 27 21 78 33 78 4 0 7 -16 7 -35 0 -26 4 -35 16 -35 13 0 14 3 5 13 -8 11 -6
18 9 32 19 17 19 18 -10 44 -50 43 -88 71 -98 71 -5 0 -12 -8 -15 -19 -3 -13
-17 -20 -47 -24 -34 -4 -53 -16 -96 -58 -30 -30 -54 -57 -54 -62 0 -5 -6 -15
-14 -23 -16 -16 -96 -19 -96 -4 0 6 -10 10 -23 10 -17 0 -27 -9 -37 -35 -15
-38 -30 -46 -30 -17 0 10 -6 30 -12 45 -10 21 -20 27 -45 27 -17 0 -34 4 -37
9 -3 5 -33 12 -66 16 -45 5 -67 3 -91 -9 -18 -9 -40 -16 -51 -16 -19 0 -25
-25 -8 -35 15 -9 12 -55 -3 -55 -8 0 -22 -9 -32 -20 -10 -11 -23 -20 -30 -20
-6 0 -22 -11 -35 -25 -13 -14 -32 -25 -42 -25 -17 0 -17 2 2 35 11 20 20 44
20 54 0 11 6 22 13 24 6 3 3 6 -9 6 -11 1 -29 -6 -40 -14 -10 -8 -26 -15 -36
-15 -9 0 -34 -10 -57 -22 -22 -12 -44 -18 -48 -15 -8 9 56 77 72 77 6 0 22 11
35 25 13 14 29 25 35 25 6 0 26 16 45 35 19 19 38 35 43 35 5 0 22 14 37 30
15 17 32 30 37 30 5 0 24 16 43 35 19 19 39 35 45 35 6 0 22 11 35 25 13 14
29 25 37 25 8 0 13 12 13 29 0 17 5 33 10 36 6 3 10 17 10 30 0 26 15 41 25
25 4 -6 15 -2 28 10 20 19 20 21 4 37 -11 11 -17 13 -17 5 0 -7 -6 -12 -13
-12 -8 0 -24 -11 -37 -25 -13 -14 -30 -25 -37 -25 -8 0 -16 -8 -20 -17 -8 -24
-54 -73 -68 -73 -6 0 -22 -12 -36 -26 -13 -14 -33 -30 -44 -35 -31 -14 -58
-32 -76 -51 -19 -21 -54 -25 -45 -5 3 6 9 20 12 30 4 9 10 17 15 17 5 0 9 11
9 24 0 14 5 28 10 31 6 3 10 17 10 29 0 13 7 29 15 36 24 20 17 39 -17 48 -30
8 -72 -1 -88 -18 -10 -10 -60 -33 -64 -29 -3 2 -1 20 3 39 6 31 12 36 46 45
22 5 42 12 45 15 12 13 53 31 58 25 3 -3 1 -15 -6 -26 -12 -19 -11 -20 25 -13
21 4 53 15 71 26 18 10 41 18 52 18 11 0 20 5 20 10 0 6 8 10 19 10 10 0 32 7
47 15 37 19 68 19 84 0 23 -28 30 -15 30 55 0 68 1 70 25 70 14 0 25 4 25 10
0 10 -25 18 -75 22 -44 4 -44 31 0 48 29 11 35 18 31 35 -3 11 -6 41 -6 68 0
40 -3 47 -20 47 -11 0 -20 5 -20 10 0 15 -60 12 -76 -4 -16 -17 -19 -62 -4
-71 6 -3 10 -17 10 -31 0 -13 5 -24 10 -24 6 0 10 -4 10 -10 0 -5 -19 -10 -42
-10 -37 0 -45 4 -55 27 -7 15 -13 35 -13 45 0 10 -4 18 -10 18 -5 0 -10 20
-10 45 0 25 5 45 11 45 6 0 9 12 7 27 -3 26 -33 47 -157 109 -8 4 -26 18 -40
30 -67 59 -99 84 -108 84 -5 0 -20 11 -33 25 -13 14 -29 25 -36 25 -15 0 -39
28 -31 37 4 3 21 -1 39 -9 18 -9 48 -22 66 -29 17 -8 32 -17 32 -21 0 -5 9 -8
20 -8 11 0 20 -3 20 -8 0 -4 19 -15 43 -25 23 -10 54 -24 70 -30 15 -7 27 -15
27 -19 0 -5 9 -8 20 -8 11 0 20 -3 20 -8 0 -9 45 -28 88 -37 17 -4 32 -11 32
-16 0 -5 9 -9 19 -9 11 0 21 -4 23 -8 5 -13 113 -62 136 -62 13 0 22 6 22 15
0 19 29 19 54 0 11 -8 30 -15 42 -15 13 0 26 -4 29 -10 15 -24 35 -9 35 25 0
30 -3 35 -23 35 -13 0 -32 10 -43 21 -10 12 -29 25 -41 30 -12 4 -30 25 -40
46 -18 39 -56 83 -71 83 -5 0 -19 11 -32 25 -13 14 -29 25 -36 25 -15 0 -39
28 -31 37 4 3 40 -10 80 -30 40 -21 77 -37 83 -37 6 0 50 -20 98 -45 49 -25
92 -45 97 -45 5 0 9 22 9 49 0 49 19 85 21 39 1 -26 29 -80 44 -82 5 0 13 15
18 34 5 19 13 40 17 45 6 7 -3 16 -23 25 -59 26 -69 46 -37 75 11 10 20 24 20
32 0 18 16 17 24 -2 3 -8 10 -15 16 -15 12 0 13 72 1 86 -5 5 -11 62 -14 127
-2 69 -9 123 -16 130 -6 6 -11 21 -11 33 0 13 -4 26 -10 29 -5 3 -10 17 -10
31 0 13 -4 24 -10 24 -5 0 -10 11 -10 24 0 14 -4 27 -9 30 -5 4 -13 56 -16
116 -4 61 -12 113 -16 116 -13 7 -11 144 1 144 6 0 10 -11 10 -24z"></path>
<path d="M4490 8055 c0 -52 -4 -97 -10 -100 -12 -7 -14 -155 -2 -155 12 0 42
34 42 46 0 6 14 23 30 39 17 16 30 34 30 40 0 6 11 22 25 35 14 13 25 29 25
37 0 7 5 13 10 13 6 0 10 7 10 15 0 8 -6 15 -13 15 -7 0 -31 18 -52 41 -22 22
-52 46 -67 54 l-28 13 0 -93z"></path>
</g>
</svg>