<?xml version="1.0" encoding="iso-8859-1"?>
<!-- Generator: Adobe Illustrator 19.0.0, SVG Export Plug-In . SVG Version: 6.00 Build 0)  -->
<svg version="1.1" id="Layer_1" xmlns="http://www.w3.org/2000/svg" xmlns:xlink="http://www.w3.org/1999/xlink" x="0px" y="0px"
	 viewBox="0 0 512 512" style="enable-background:new 0 0 512 512;" xml:space="preserve">
<g>
	<path style="fill:#E7ECED;" d="M256,201.211l21.113,13.196c-0.317,46.344-38.004,83.82-84.454,83.82
		c-27.975,0-52.784-13.618-68.091-34.52l88.887-46.344l37.265-19.424L256,201.211z"/>
	<path style="fill:#E7ECED;" d="M192.66,129.32c46.661,0,84.454,37.793,84.454,84.454c0,0.211,0,0.422,0,0.633l-26.392-16.468
		l-126.153,65.768c-10.24-14.04-16.363-31.248-16.363-49.933c0-3.906,0.211-7.706,0.739-11.401c3.167,0.633,6.44,0.845,9.818,0.845
		c34.943,0,63.34-28.398,63.34-63.34c0-3.378-0.211-6.651-0.845-9.818C184.953,129.531,188.754,129.32,192.66,129.32z"/>
	<path style="fill:#E7ECED;" d="M108.945,202.372c5.067-37.582,34.732-67.246,72.313-72.313c0.633,3.167,0.845,6.44,0.845,9.818
		c0,34.943-28.398,63.34-63.34,63.34C115.385,203.217,112.112,203.005,108.945,202.372z"/>
</g>
<path style="fill:#0071BC;" d="M504.082,29.031v232.247l-110.845-79.175l-39.376,30.931l-34.52,27.131l-0.317,0.422l-41.91-26.181
	c0-0.211,0-0.422,0-0.633c0-46.661-37.793-84.454-84.454-84.454c-3.906,0-7.706,0.211-11.401,0.739
	c-4.645-30.298-30.931-53.522-62.496-53.522c-34.943,0-63.34,28.398-63.34,63.34c0,31.565,23.225,57.851,53.522,62.496
	c-0.528,3.695-0.739,7.495-0.739,11.401c0,18.685,6.123,35.893,16.363,49.933L7.918,324.619V29.031H256H504.082z"/>
<polygon style="fill:#00AA4F;" points="504.082,307.306 504.082,356.289 319.024,240.587 319.34,240.165 353.861,213.034 
	393.237,182.103 504.082,261.278 "/>
<path style="fill:#36C63F;" d="M504.082,398.515H7.918v-73.897l116.652-60.912c15.307,20.902,40.115,34.52,68.091,34.52
	c46.449,0,84.137-37.476,84.454-83.82l41.91,26.181l185.059,115.701v41.805V398.515z"/>
<path style="fill:#FFD311;" d="M118.763,76.536c31.565,0,57.851,23.225,62.496,53.522c-37.582,5.067-67.246,34.732-72.313,72.313
	c-30.298-4.645-53.522-30.931-53.522-62.496C55.423,104.934,83.82,76.536,118.763,76.536z"/>
<path style="fill:#FDB51E;" d="M130.164,102.928c20.861,0,39.26,10.262,50.787,25.889c-5.179-29.671-31.069-52.281-62.188-52.281
	c-34.943,0-63.34,28.398-63.34,63.34c0,13.941,4.719,26.706,12.388,37.18c-0.606-3.513-0.987-7.105-0.987-10.788
	C66.824,131.325,95.221,102.928,130.164,102.928z"/>
<rect x="7.918" y="398.515" style="fill:#AFB6BB;" width="496.165" height="84.454"/>
<path style="fill:#2CB34A;" d="M504.082,398.515v-0.422v-41.805L319.024,240.587l-41.91-26.181
	c-0.126,18.358-6.183,35.271-16.258,49.069l227.437,135.04H504.082z"/>
<polygon style="fill:#00A052;" points="359.163,208.869 319.34,240.165 319.024,240.587 504.082,356.289 504.082,307.306 
	504.082,306.786 "/>
<path style="fill:#0C63A3;" d="M7.918,29.031v295.588l116.652-60.912c-10.24-14.04-16.363-31.248-16.363-49.933
	c0-3.906,0.211-7.706,0.739-11.401c-30.298-4.645-53.522-30.931-53.522-62.496c0-34.943,28.398-63.34,63.34-63.34
	c31.565,0,57.851,23.225,62.496,53.522c3.695-0.529,7.495-0.739,11.401-0.739c25.264,0,47.866,11.138,63.34,28.708V29.031H7.918z"/>
<g>
	<rect x="39.588" y="432.825" style="fill:#FFFFFF;" width="258.639" height="15.835"/>
	<rect x="314.062" y="432.825" style="fill:#FFFFFF;" width="26.392" height="15.835"/>
	<rect x="356.289" y="432.825" style="fill:#FFFFFF;" width="26.392" height="15.835"/>
	<rect x="398.515" y="432.825" style="fill:#FFFFFF;" width="26.392" height="15.835"/>
	<rect x="234.887" y="79.175" style="fill:#FFFFFF;" width="137.237" height="15.835"/>
	<rect x="393.237" y="79.175" style="fill:#FFFFFF;" width="26.392" height="15.835"/>
	<rect x="287.67" y="121.402" style="fill:#FFFFFF;" width="26.392" height="15.835"/>
	<rect x="329.897" y="121.402" style="fill:#FFFFFF;" width="131.959" height="15.835"/>
</g>
<path d="M0,21.113v469.773h512V21.113H0z M496.165,342.002L332.642,239.783l60.821-47.789l102.702,73.358V342.002z M496.165,36.948
	v208.945l-103.154-73.682l-74.643,58.648l-33.421-20.892c-2.004-49.175-42.628-88.565-92.287-88.565
	c-1.779,0-3.468,0.053-5.117,0.135c-3.636-13.731-11.365-26.174-22.259-35.591c-12.927-11.174-29.448-17.328-46.521-17.328
	c-39.292,0-71.258,31.966-71.258,71.258c0,17.073,6.153,33.595,17.328,46.52c9.417,10.893,21.86,18.623,35.591,22.259
	c-0.082,1.65-0.135,3.339-0.135,5.118c0,16.633,4.435,32.689,12.874,46.957l-97.328,50.822V36.948H496.165z M251.061,188.833
	l-123.843,64.563c-7.271-12.004-11.094-25.57-11.094-39.622c0-0.921,0.014-1.812,0.039-2.684c0.84,0.027,1.702,0.044,2.6,0.044
	c39.292,0,71.258-31.966,71.258-71.258c0-0.898-0.017-1.76-0.044-2.6c0.871-0.025,1.763-0.039,2.684-0.039
	c37.235,0,68.328,26.733,75.136,62.01L251.061,188.833z M269.033,218.695c-2.533,39.868-35.916,71.615-76.373,71.615
	c-21.165,0-41.399-8.88-55.739-24.114l113.461-59.152L269.033,218.695z M174.186,139.876c0,30.56-24.863,55.423-55.423,55.423
	c-0.138,0-0.268-0.002-0.404-0.003c6.797-27.426,28.396-49.025,55.823-55.823C174.182,139.608,174.186,139.738,174.186,139.876z
	 M102.658,192.842c-22.871-6.936-39.317-28.489-39.317-52.966c0-30.56,24.863-55.423,55.423-55.423
	c24.478,0,46.034,16.448,52.967,39.322C137.512,131.706,110.566,158.663,102.658,192.842z M496.165,475.052H15.835v-68.619h480.33
	V475.052z M15.835,390.598v-61.181l106.607-55.667c17.427,20.393,43.191,32.394,70.218,32.394c45.972,0,84.383-33.965,91.27-78.144
	l212.235,132.676v29.922H15.835z"/>
<g>
	
		<rect x="288.855" y="314.045" transform="matrix(-0.8609 -0.5087 0.5087 -0.8609 499.25 780.4024)" style="fill:#FFFFFF;" width="134.878" height="15.834"/>
	
		<rect x="379.982" y="248.09" transform="matrix(-0.8321 -0.5547 0.5547 -0.8321 641.3217 706.1833)" style="fill:#FFFFFF;" width="95.162" height="15.836"/>
</g>
<g>
</g>
<g>
</g>
<g>
</g>
<g>
</g>
<g>
</g>
<g>
</g>
<g>
</g>
<g>
</g>
<g>
</g>
<g>
</g>
<g>
</g>
<g>
</g>
<g>
</g>
<g>
</g>
<g>
</g>
</svg>
