<?xml version="1.0" encoding="iso-8859-1"?>
<!-- Generator: Adobe Illustrator 16.0.0, SVG Export Plug-In . SVG Version: 6.00 Build 0)  -->
<!DOCTYPE svg PUBLIC "-//W3C//DTD SVG 1.1//EN" "http://www.w3.org/Graphics/SVG/1.1/DTD/svg11.dtd">
<svg version="1.1" id="Capa_1" xmlns="http://www.w3.org/2000/svg" xmlns:xlink="http://www.w3.org/1999/xlink" x="0px" y="0px"
	 width="569.514px" height="569.515px" viewBox="0 0 569.514 569.515" style="enable-background:new 0 0 569.514 569.515;"
	 xml:space="preserve">
<g>
	<g>
		<g>
			<path d="M343.379,448.496c0,4.766-3.861,8.619-8.629,8.619H112.459c-4.766,0-8.629-3.854-8.629-8.619V125.101
				c0-4.768,3.864-8.621,8.629-8.621h125.676c0.232-19.121,3.966-37.369,10.492-54.256H90.778
				c-18.867,0-34.176,15.304-34.176,34.184v438.921c0,18.882,15.306,34.186,34.176,34.186h265.619
				c18.869,0,34.174-15.304,34.174-34.186V274.67c-16.495-0.41-32.332-3.391-47.188-8.564v182.39H343.379L343.379,448.496z
				 M167.713,517.737c0,4.58-3.715,8.284-8.294,8.284h-58.921c-4.582,0-8.295-3.704-8.295-8.284v-14.579
				c0-4.58,3.713-8.285,8.295-8.285h58.919c4.58,0,8.295,3.705,8.295,8.285L167.713,517.737L167.713,517.737z M223.615,533.823
				c-12.924,0-23.376-10.463-23.376-23.364c0-12.903,10.453-23.387,23.376-23.387c12.895,0,23.376,10.482,23.376,23.387
				C246.991,523.36,236.51,533.823,223.615,533.823z M354.989,503.16v14.58c0,4.579-3.715,8.284-8.292,8.284h-58.922
				c-4.58,0-8.292-3.705-8.292-8.284v-14.58c0-4.58,3.712-8.284,8.292-8.284h58.922C351.274,494.873,354.989,498.58,354.989,503.16z
				"/>
			<path d="M394.544,0c-65.369,0-118.369,52.991-118.369,118.363c0,65.39,53,118.377,118.369,118.377
				c65.37,0,118.368-52.989,118.368-118.377C512.915,52.991,459.917,0,394.544,0z M435.973,138.247h-82.854
				c-10.984,0-19.887-8.899-19.887-19.884c0-10.985,8.901-19.884,19.887-19.884h82.854c10.982,0,19.884,8.898,19.884,19.884
				C455.857,129.346,446.956,138.247,435.973,138.247z"/>
		</g>
	</g>
</g>
<g>
</g>
<g>
</g>
<g>
</g>
<g>
</g>
<g>
</g>
<g>
</g>
<g>
</g>
<g>
</g>
<g>
</g>
<g>
</g>
<g>
</g>
<g>
</g>
<g>
</g>
<g>
</g>
<g>
</g>
</svg>
