<?xml version="1.0" standalone="no"?>
<!DOCTYPE svg PUBLIC "-//W3C//DTD SVG 20010904//EN"
 "http://www.w3.org/TR/2001/REC-SVG-20010904/DTD/svg10.dtd">
<svg version="1.0" xmlns="http://www.w3.org/2000/svg"
 width="5000.000000pt" height="4325.000000pt" viewBox="0 0 5000.000000 4325.000000"
 preserveAspectRatio="xMidYMid meet">
<metadata>
Created by potrace 1.16, written by Peter Selinger 2001-2019
</metadata>
<g transform="translate(0.000000,4325.000000) scale(0.100000,-0.100000)"
fill="#000000" stroke="none">
<path d="M21690 35940 l0 -1380 205 0 204 0 3 588 c3 570 4 589 25 643 29 77
61 126 122 182 93 87 205 123 351 114 197 -12 328 -114 375 -292 13 -50 15
-149 15 -647 l0 -588 211 0 210 0 -4 618 c-4 666 -5 672 -61 829 -55 150 -158
268 -289 333 -128 62 -188 75 -367 75 -179 0 -239 -13 -367 -76 -56 -27 -105
-61 -150 -104 -37 -36 -69 -65 -70 -65 -2 0 -3 259 -3 575 l0 575 -205 0 -205
0 0 -1380z"/>
<path d="M8965 37239 c-325 -41 -613 -216 -723 -439 -56 -115 -75 -199 -75
-340 -1 -244 87 -413 281 -540 166 -109 360 -160 772 -205 321 -34 462 -100
536 -251 26 -53 29 -69 29 -154 0 -83 -4 -103 -29 -158 -33 -72 -81 -119 -165
-161 -174 -88 -459 -111 -677 -56 -187 48 -337 187 -360 333 l-7 42 -213 0
-214 0 0 -35 c0 -128 72 -307 167 -417 143 -166 321 -265 576 -320 135 -29
440 -32 587 -5 272 50 497 167 623 322 104 129 150 269 150 460 0 137 -17 224
-63 321 -119 249 -338 364 -817 429 -305 41 -383 55 -478 86 -114 36 -173 73
-213 134 -43 65 -55 115 -50 206 8 140 70 226 213 294 113 53 191 69 345 69
205 -1 325 -35 437 -124 64 -51 100 -105 121 -185 l17 -65 202 0 203 0 0 51
c0 78 -28 186 -72 279 -107 224 -382 387 -728 429 -98 13 -275 12 -375 0z"/>
<path d="M39620 37153 c-70 -37 -107 -85 -122 -156 -23 -109 15 -206 104 -265
33 -21 56 -27 114 -30 89 -5 129 8 187 59 61 53 80 106 75 203 -3 63 -8 81
-33 117 -68 97 -215 129 -325 72z"/>
<path d="M18020 36933 c0 -5 -9 -123 -20 -263 -11 -140 -20 -263 -20 -272 0
-17 -16 -18 -185 -18 l-185 0 0 -135 0 -134 33 -5 c17 -3 77 -8 132 -11 55 -3
123 -8 152 -11 l52 -6 3 -512 c4 -489 5 -514 26 -591 63 -229 192 -370 392
-429 95 -28 231 -39 349 -26 97 10 305 54 328 69 6 4 2 65 -10 159 -18 130
-23 152 -36 146 -73 -29 -216 -56 -304 -56 -92 -1 -102 1 -165 33 -80 41 -122
92 -154 187 -21 65 -22 82 -26 545 l-3 477 315 0 316 0 0 150 0 150 -315 0
-315 0 0 280 0 280 -180 0 c-99 0 -180 -3 -180 -7z"/>
<path d="M16975 36434 c-166 -26 -331 -126 -400 -243 -34 -57 -45 -63 -45 -23
0 15 -9 45 -19 68 -68 150 -249 209 -513 167 l-38 -6 0 -137 0 -138 58 -7 c67
-8 95 -24 119 -68 17 -30 18 -86 21 -759 l3 -728 199 0 200 0 0 533 c0 303 5
562 10 602 14 91 47 162 106 226 92 97 201 141 354 141 112 0 194 -19 292 -68
49 -25 70 -31 73 -22 16 48 96 340 93 343 -27 25 -120 71 -183 91 -61 20 -106
27 -190 29 -60 2 -123 1 -140 -1z"/>
<path d="M32305 36425 c-171 -37 -312 -133 -376 -257 l-23 -43 -8 44 c-18 100
-101 194 -196 221 -95 27 -181 34 -275 21 -50 -6 -95 -15 -99 -19 -4 -4 -5
-67 -1 -139 l6 -131 56 -7 c31 -4 67 -13 79 -22 52 -33 52 -26 52 -808 l0
-725 205 0 205 0 0 548 c0 354 4 569 11 608 43 231 267 378 528 345 85 -11
172 -39 239 -76 25 -14 47 -24 49 -21 2 2 26 79 52 172 l49 169 -21 19 c-37
32 -159 85 -232 101 -85 18 -219 18 -300 0z"/>
<path d="M41365 36433 c-166 -22 -353 -140 -412 -260 -21 -45 -33 -46 -33 -4
0 37 -42 121 -76 153 -89 83 -256 113 -456 81 l-38 -6 0 -137 0 -138 58 -7
c67 -8 95 -24 119 -68 17 -30 18 -86 21 -759 l3 -728 199 0 200 0 0 533 c0
303 5 562 10 602 14 91 47 162 106 226 92 97 201 141 354 141 112 0 194 -19
292 -68 49 -25 70 -31 73 -22 2 7 25 86 51 176 53 188 58 168 -61 226 -111 55
-271 77 -410 59z"/>
<path d="M20297 36419 c-200 -27 -359 -125 -441 -269 l-31 -55 -7 58 c-25 196
-167 282 -420 256 -49 -5 -94 -12 -99 -15 -5 -3 -9 -68 -9 -145 l0 -139 38 0
c20 0 56 -9 80 -20 83 -37 77 59 80 -1277 l3 -1183 204 0 205 0 0 526 c0 289
3 524 8 522 4 -2 31 -16 60 -31 194 -102 461 -133 662 -77 256 72 479 278 573
530 45 118 61 222 61 385 -1 242 -49 418 -164 592 -112 171 -257 278 -435 323
-94 24 -269 33 -368 19z m198 -375 c126 -32 219 -113 285 -248 123 -248 84
-581 -87 -752 -61 -62 -171 -119 -258 -135 -144 -27 -324 9 -472 93 l-73 42 0
285 c0 310 8 379 53 468 61 120 159 207 274 243 73 24 198 26 278 4z"/>
<path d="M36070 36420 c-210 -30 -362 -122 -450 -273 l-27 -48 -7 53 c-17 122
-89 214 -194 244 -61 18 -162 22 -264 10 l-68 -8 0 -142 0 -143 48 -6 c62 -7
98 -24 119 -56 17 -24 18 -98 21 -1223 l2 -1198 210 0 210 0 0 525 0 525 68
-33 c154 -78 317 -113 477 -104 227 13 400 93 562 259 176 181 253 384 253
674 0 220 -34 373 -120 531 -112 208 -274 341 -477 394 -90 23 -267 32 -363
19z m179 -371 c155 -35 278 -160 338 -343 23 -71 26 -98 27 -216 1 -150 -10
-210 -56 -308 -38 -81 -131 -180 -206 -220 -181 -97 -429 -77 -637 49 l-55 33
0 296 c0 233 3 308 15 355 58 225 229 363 450 364 44 0 100 -4 124 -10z"/>
<path d="M10626 36409 c-38 -5 -83 -13 -100 -17 l-31 -8 -3 -127 -3 -127 46 0
c71 0 109 -21 131 -71 18 -42 19 -82 22 -771 l3 -728 205 0 204 0 0 568 c0
607 1 627 51 724 53 103 175 193 297 219 66 13 193 7 237 -12 95 -41 153 -108
197 -225 22 -58 23 -66 26 -666 l3 -608 204 0 205 0 0 565 c0 381 4 581 11
617 29 135 118 252 232 304 82 37 226 46 308 19 63 -21 134 -88 166 -155 52
-107 53 -121 53 -757 l0 -593 210 0 210 0 0 593 c0 341 -5 630 -10 682 -23
196 -76 323 -179 426 -113 112 -229 153 -436 152 -294 0 -525 -107 -631 -290
-10 -18 -21 -33 -24 -33 -3 0 -18 28 -34 62 -55 118 -175 209 -323 245 -101
24 -295 21 -398 -6 -166 -44 -307 -136 -376 -243 l-34 -53 -7 58 c-13 106 -64
189 -139 227 -19 10 -70 23 -113 29 -86 12 -82 12 -180 0z"/>
<path d="M14415 36405 c-112 -18 -249 -58 -332 -95 -51 -23 -63 -33 -59 -47 3
-10 17 -74 31 -143 14 -68 27 -126 29 -127 2 -2 24 6 50 17 184 79 586 121
731 76 125 -38 198 -94 236 -179 19 -43 23 -75 27 -181 2 -71 1 -127 -4 -124
-5 2 -36 16 -69 31 -145 68 -285 97 -460 97 -248 0 -425 -62 -559 -196 -158
-158 -204 -470 -100 -682 58 -118 201 -233 359 -289 75 -26 90 -28 245 -27
138 0 178 4 244 22 163 45 306 137 375 240 l36 54 9 -44 c28 -144 74 -218 158
-254 45 -19 180 -22 298 -6 l55 7 3 118 3 117 -56 0 c-67 0 -89 10 -112 53
-16 29 -19 81 -24 542 -6 551 -8 572 -64 690 -71 149 -217 252 -444 312 -86
23 -119 26 -306 29 -149 2 -236 -1 -300 -11z m482 -975 c43 -11 112 -38 153
-58 l75 -37 3 -68 c8 -182 -98 -317 -301 -383 -105 -34 -272 -40 -352 -11 -74
26 -139 78 -165 132 -19 40 -22 58 -18 133 8 162 91 259 259 307 74 21 241 14
346 -15z"/>
<path d="M24560 36406 c-313 -66 -573 -267 -679 -523 -56 -137 -66 -200 -65
-413 0 -168 3 -206 22 -275 29 -106 99 -245 163 -323 111 -136 315 -265 499
-314 117 -31 395 -33 510 -4 329 84 578 305 669 596 33 107 44 188 44 330 -1
220 -46 378 -154 539 -127 191 -294 308 -529 372 -98 27 -381 35 -480 15z
m343 -361 c96 -25 176 -72 253 -149 113 -114 154 -225 154 -417 0 -199 -50
-330 -164 -437 -224 -209 -556 -205 -770 11 -118 117 -160 231 -159 427 0 122
17 209 55 284 70 139 195 238 353 281 67 18 208 18 278 0z"/>
<path d="M27084 36410 c-102 -13 -251 -64 -320 -109 -65 -42 -121 -98 -153
-150 -22 -38 -25 -35 -35 37 -19 133 -136 224 -285 221 -31 0 -103 -6 -161
-12 l-105 -12 -3 -131 -3 -131 51 -7 c77 -10 99 -22 118 -63 15 -34 17 -106
20 -765 l3 -728 204 0 204 0 3 573 c3 568 3 572 26 636 81 224 284 350 503
313 130 -22 224 -82 290 -184 67 -105 69 -123 69 -767 l0 -571 211 0 211 0 -5
608 c-4 527 -7 617 -22 682 -53 234 -175 408 -341 490 -125 62 -320 90 -480
70z"/>
<path d="M29120 36413 c-85 -9 -213 -48 -305 -93 -246 -120 -393 -297 -462
-556 -24 -90 -26 -116 -26 -284 -1 -168 2 -194 25 -281 87 -323 327 -553 673
-646 92 -24 116 -27 300 -27 251 -1 394 26 627 115 70 27 79 34 75 53 -3 11
-15 80 -27 152 l-22 132 -82 -30 c-181 -67 -403 -95 -614 -78 -192 15 -292 53
-400 154 -95 89 -137 171 -151 299 l-7 67 672 0 672 0 6 28 c4 15 10 100 13
188 4 132 2 176 -12 240 -71 322 -288 513 -640 564 -67 9 -241 11 -315 3z
m293 -328 c128 -33 242 -116 285 -207 19 -41 42 -139 42 -180 0 -17 -24 -18
-505 -18 l-505 0 6 28 c48 201 171 333 352 376 78 19 253 20 325 1z"/>
<path d="M33775 36410 c-297 -46 -559 -230 -680 -478 -115 -233 -124 -606 -23
-850 60 -144 188 -300 320 -391 78 -53 207 -109 313 -138 92 -24 116 -26 300
-27 215 -1 295 9 465 60 110 33 240 83 240 93 0 4 -11 70 -25 147 -14 76 -25
142 -25 146 0 3 -42 -9 -93 -27 -184 -66 -391 -92 -602 -76 -189 15 -302 59
-407 159 -93 88 -148 207 -148 319 l0 43 669 0 669 0 11 68 c19 125 21 199 11
298 -38 342 -240 567 -574 640 -84 19 -335 27 -421 14z m367 -338 c165 -60
255 -170 274 -334 l7 -58 -506 0 -505 0 15 57 c47 180 169 305 339 348 88 22
300 14 376 -13z"/>
<path d="M37855 36404 c-158 -24 -395 -104 -395 -132 0 -11 49 -250 55 -269 3
-9 23 -5 72 13 166 63 494 107 640 85 81 -12 179 -51 236 -95 19 -14 47 -50
63 -78 27 -50 29 -61 32 -191 l4 -138 -51 26 c-79 39 -217 82 -309 96 -108 15
-346 6 -427 -16 -110 -30 -224 -93 -295 -165 -77 -77 -113 -140 -140 -246 -23
-88 -27 -241 -9 -326 37 -180 190 -333 404 -406 74 -25 92 -27 245 -26 150 0
173 3 253 27 169 52 293 134 369 246 l32 45 12 -70 c14 -86 37 -136 82 -182
50 -49 94 -65 182 -65 93 0 222 12 239 22 9 6 11 34 5 119 l-7 112 -52 0 c-68
0 -99 24 -120 92 -12 43 -15 130 -15 520 0 515 -3 552 -61 674 -80 169 -267
285 -534 329 -113 19 -386 18 -510 -1z m476 -973 c42 -11 111 -36 153 -56 l76
-36 0 -92 c0 -80 -4 -100 -29 -152 -53 -114 -184 -200 -352 -231 -220 -42
-413 38 -449 185 -42 177 68 348 255 396 78 19 244 13 346 -14z"/>
<path d="M39530 35460 l0 -900 205 0 205 0 0 900 0 900 -205 0 -205 0 0 -900z"/>
<path d="M8942 30699 c-158 -20 -311 -93 -429 -203 -126 -118 -204 -256 -238
-422 -14 -72 -15 -1011 -13 -10179 l3 -10100 33 -95 c79 -226 232 -394 439
-480 154 -64 -134 -60 3801 -60 1975 0 3592 2 3592 4 0 2 -18 71 -40 152 -157
583 -229 1082 -260 1804 -6 135 -17 387 -25 560 l-16 315 -457 1442 c-370
1169 -460 1443 -474 1443 -9 0 -24 10 -32 21 -13 19 -13 25 0 53 15 30 13 40
-59 266 -41 129 -77 256 -81 281 -9 64 16 175 56 252 41 77 145 184 221 227
38 21 57 38 57 51 0 23 32 45 96 64 79 23 104 27 203 31 179 7 338 -49 431
-154 84 -94 133 -204 225 -507 21 -66 62 -201 92 -300 77 -248 91 -295 113
-371 22 -75 35 -98 25 -44 -3 19 -82 538 -174 1153 -167 1104 -169 1118 -195
1138 -30 24 -33 54 -9 81 16 18 15 33 -20 266 -21 136 -37 273 -37 305 0 73
25 195 55 270 78 190 262 359 457 418 37 12 66 24 63 29 -2 4 5 16 16 26 17
15 39 19 108 21 269 7 503 -104 639 -300 50 -72 122 -214 122 -240 0 -7 4 -17
9 -22 23 -26 67 -248 75 -380 3 -44 7 -90 10 -101 5 -26 13 -74 21 -134 3 -25
7 -52 9 -60 1 -8 6 -37 10 -65 10 -67 13 -84 20 -125 3 -19 8 -55 11 -80 3
-25 7 -56 10 -70 5 -26 60 -384 69 -455 3 -22 10 -67 15 -100 5 -33 17 -107
25 -165 9 -58 19 -121 22 -140 28 -181 34 -235 30 -246 -3 -7 -2 -15 2 -18 4
-2 143 415 309 927 279 862 300 933 285 950 -21 24 -5 71 25 75 20 3 31 31 94
225 39 122 86 251 105 287 122 234 375 390 631 390 68 0 89 4 111 20 l27 20
78 -20 c109 -27 224 -90 307 -167 l70 -65 -2 5834 c-3 5518 -4 5836 -20 5893
-33 111 -105 240 -180 320 -38 41 -90 90 -116 109 -68 50 -181 104 -270 129
l-77 22 -4970 1 c-2733 1 -4998 -2 -5033 -7z"/>
<path d="M26557 28643 c-2 -5 -3 -34 -2 -66 1 -33 -2 -52 -7 -45 -6 11 -8 10
-8 0 0 -7 -6 -10 -12 -7 -7 4 -2 -3 12 -14 23 -19 38 -21 172 -21 89 0 149 4
153 10 4 6 11 7 17 4 7 -5 9 -1 5 9 -3 9 1 21 11 29 15 12 16 11 3 -4 -8 -12
-9 -18 -2 -18 14 0 25 44 17 75 -4 14 -11 25 -17 25 -7 0 -6 -6 2 -17 13 -16
12 -17 -3 -5 -10 8 -14 20 -11 29 4 10 2 14 -5 9 -6 -3 -13 -2 -17 4 -7 12
-302 14 -308 3z"/>
<path d="M27088 28631 c-19 -16 -25 -29 -25 -61 0 -36 6 -45 29 -41 4 0 4 -7
1 -16 -4 -11 -3 -14 5 -9 7 4 12 2 12 -4 0 -8 44 -11 147 -9 81 1 154 4 164 6
17 5 42 46 44 73 1 8 -6 23 -14 34 -9 10 -15 21 -13 25 2 6 -3 6 -29 3 -5 -1
-7 -6 -4 -12 3 -5 -2 -10 -11 -10 -16 0 -16 1 0 19 17 19 14 19 -131 20 -135
2 -152 0 -175 -18z"/>
<path d="M27705 28630 c2 -9 -3 -17 -11 -17 -8 0 -13 6 -10 14 8 21 -8 15 -22
-8 -11 -17 -11 -20 0 -13 11 6 11 5 0 -8 -10 -13 -10 -17 0 -22 11 -5 11 -7 0
-12 -10 -5 -10 -9 0 -22 11 -13 11 -14 0 -8 -11 7 -11 4 -1 -12 10 -15 17 -18
26 -11 7 6 17 8 22 4 6 -3 21 -1 33 5 21 10 22 10 5 -3 -10 -9 -14 -17 -10
-20 5 -3 67 -5 138 -4 106 2 129 5 127 16 -3 12 0 12 12 2 9 -8 16 -9 21 -2
11 19 14 50 4 56 -5 4 -9 12 -9 18 0 7 4 6 10 -3 8 -11 9 -8 6 12 -7 41 -15
51 -32 37 -12 -10 -13 -9 -8 5 6 16 -6 17 -149 15 -140 -2 -155 -4 -152 -19z"/>
<path d="M28222 28634 c-13 -9 -21 -22 -18 -29 2 -7 0 -17 -6 -23 -6 -6 -7
-16 -2 -24 5 -7 9 -15 10 -18 4 -20 18 -39 25 -34 5 3 9 0 9 -5 0 -15 296 -15
305 -1 4 6 10 8 15 5 10 -6 33 31 35 58 1 9 -2 17 -7 17 -4 0 -8 8 -8 19 0 40
-40 51 -192 51 -116 0 -148 -3 -166 -16z"/>
<path d="M28776 28629 c-37 -29 -37 -89 1 -119 25 -20 38 -21 174 -19 138 2
147 3 144 21 -2 10 0 16 5 13 5 -3 11 -1 15 5 3 5 12 10 18 10 7 0 6 -4 -3
-10 -13 -8 -12 -10 3 -10 9 0 18 8 19 18 0 9 2 24 3 32 2 27 -15 55 -42 68
-18 8 -76 12 -169 12 -128 0 -144 -2 -168 -21z"/>
<path d="M26455 27016 c-42 -18 -102 -88 -114 -133 -7 -25 -11 -274 -11 -733
0 -459 4 -708 11 -733 13 -47 72 -115 116 -134 27 -11 270 -13 1361 -13 l1329
0 44 23 c29 16 54 40 74 72 l30 48 3 716 c2 518 0 727 -8 755 -17 56 -54 102
-104 125 -42 21 -51 21 -1372 21 -1073 -1 -1335 -3 -1359 -14z"/>
<path d="M25326 24025 c-47 -16 -91 -57 -117 -107 -18 -36 -19 -75 -19 -1165
0 -1104 0 -1130 20 -1167 l19 -39 -48 -81 c-128 -214 -282 -526 -376 -766 -54
-137 -75 -180 -75 -152 0 8 -27 12 -91 12 -69 0 -88 -3 -83 -12 5 -9 2 -8 -10
1 -14 12 -19 12 -29 1 -9 -9 -9 -11 0 -6 6 3 14 2 17 -3 7 -10 -13 -9 -30 2
-26 16 -32 -25 -33 -223 -2 -196 -1 -207 18 -225 12 -10 22 -15 22 -12 1 4 2
12 3 19 0 6 9 12 19 14 17 2 17 1 3 -15 -20 -22 -20 -28 -1 -28 8 0 12 4 9 9
-5 7 10 12 29 9 12 -2 8 17 -5 21 -7 3 -4 7 7 12 11 4 16 4 13 0 -4 -4 -3 -15
2 -25 8 -15 7 -17 -10 -14 -11 2 -18 0 -15 -6 4 -5 13 -9 21 -9 17 0 17 0 -1
-74 -8 -33 -22 -66 -31 -75 -10 -10 -14 -11 -9 -3 5 10 2 13 -11 10 -11 -2
-20 -9 -20 -16 -3 -23 -4 -24 -18 -13 -11 9 -15 7 -19 -8 -2 -11 0 -25 7 -32
8 -9 8 -10 -1 -5 -14 8 -19 -354 -4 -382 5 -11 3 -67 -6 -152 -25 -226 -20
-1075 7 -1130 4 -8 10 -37 14 -65 16 -122 72 -405 113 -575 81 -331 204 -667
367 -1001 98 -202 143 -282 260 -469 460 -732 1072 -1324 1816 -1755 182 -106
540 -279 730 -353 440 -170 854 -274 1285 -323 105 -11 204 -23 221 -25 l31
-4 -13 -38 c-19 -55 -17 -100 20 -393 36 -285 45 -316 108 -379 43 -43 123
-80 174 -80 l42 0 12 -81 c6 -45 10 -83 8 -85 -2 -2 -37 -8 -78 -14 -40 -6
-87 -19 -105 -30 -46 -28 -75 -87 -75 -151 0 -77 31 -127 97 -159 l51 -25 13
-112 12 -112 56 -22 c131 -52 259 -149 345 -259 28 -37 366 -571 751 -1187
385 -617 701 -1120 702 -1119 3 2 -72 604 -117 952 -10 78 -21 168 -25 200 -8
72 -12 103 -19 151 -3 21 -8 65 -11 98 -3 33 -8 71 -10 85 -5 32 -32 249 -39
313 -3 26 -17 138 -32 250 -14 111 -26 225 -26 252 1 43 -59 572 -72 645 -4
23 1 29 44 48 89 41 125 152 78 241 -44 85 -99 105 -245 89 -54 -6 -99 -6
-104 -1 -4 4 -10 46 -11 92 l-3 84 39 13 c86 31 156 112 176 208 10 43 6 93
-24 333 -19 154 -42 298 -51 319 -8 20 -14 38 -13 39 2 0 68 20 148 44 674
199 1327 550 1881 1013 58 48 110 97 115 108 5 11 97 109 205 217 330 334 583
662 802 1042 l66 114 3 -749 c3 -837 -1 -783 75 -841 l36 -28 1036 -3 c570 -1
1051 0 1069 3 40 7 101 59 118 102 12 26 14 220 14 1065 0 981 -1 1035 -19
1073 -22 48 -44 69 -94 90 -32 13 -152 15 -963 15 -878 0 -926 1 -919 18 28
70 120 361 150 473 117 447 160 796 160 1294 0 397 -24 656 -91 995 -289 1460
-1172 2719 -2405 3428 -124 71 -445 232 -464 232 -7 0 -48 16 -91 36 -217 100
-481 198 -700 262 -175 51 -441 119 -491 126 -21 3 -76 12 -123 20 -323 55
-833 80 -1170 57 -428 -29 -829 -100 -1170 -207 -301 -95 -467 -157 -682 -255
-59 -27 -109 -49 -112 -49 -2 0 -6 91 -8 203 -4 226 -6 236 -77 300 -22 19
-57 40 -78 46 -25 7 -332 11 -933 11 -734 -1 -902 -3 -934 -15z m4749 -795
c575 -49 1094 -192 1610 -444 1309 -642 2222 -1906 2424 -3357 35 -250 44
-423 38 -718 -6 -289 -19 -436 -63 -681 -322 -1786 -1698 -3193 -3478 -3555
-330 -67 -466 -79 -876 -80 -391 0 -502 9 -790 61 -1251 227 -2344 978 -2999
2062 -151 250 -317 605 -409 872 -59 172 -138 478 -162 625 -11 72 -25 158
-30 191 -50 313 -52 869 -4 1199 173 1202 783 2239 1739 2957 373 280 852 528
1290 668 268 86 650 165 905 189 63 6 131 13 150 14 84 9 546 6 655 -3z"/>
<path d="M40105 18158 c-54 -42 -55 -51 -55 -513 l0 -425 -110 0 -110 0 0 370
c0 312 -2 376 -15 400 -41 78 -169 80 -221 3 -18 -26 -19 -54 -22 -400 l-3
-373 -90 0 c-106 0 -150 -15 -179 -62 -20 -33 -20 -43 -18 -1235 l3 -1203 33
-32 c32 -33 33 -33 142 -36 l110 -4 0 -276 c0 -153 4 -292 10 -311 30 -105
168 -131 227 -42 23 33 23 38 23 332 l0 299 105 0 105 0 0 -342 c0 -203 4
-358 10 -380 13 -44 58 -85 105 -94 42 -8 100 19 129 59 20 27 21 43 24 393
l3 364 104 0 105 0 0 -287 c0 -316 3 -333 62 -376 35 -26 104 -27 141 -2 55
36 57 48 57 370 l0 295 109 0 c96 0 112 3 142 23 19 13 39 38 46 57 9 26 12
325 12 1203 1 1266 4 1204 -53 1257 -26 23 -36 25 -142 28 l-114 4 0 370 c0
324 -2 373 -16 398 -47 78 -168 80 -220 3 -18 -26 -19 -54 -22 -400 l-3 -373
-104 0 -105 0 0 438 c0 415 -1 438 -19 466 -27 40 -57 55 -112 56 -33 0 -54
-6 -74 -22z m495 -1483 c62 -32 60 -9 60 -740 0 -740 3 -707 -66 -740 -46 -22
-777 -22 -829 -1 -67 28 -65 2 -65 740 0 408 4 675 10 690 5 14 24 35 42 46
32 19 51 20 426 20 332 0 398 -2 422 -15z"/>
<path d="M19192 15860 c-228 -701 -416 -1284 -419 -1295 -9 -32 316 401 360
479 97 173 230 288 392 338 38 12 73 25 78 28 4 3 6 393 5 865 l-3 859 -413
-1274z"/>
<path d="M37920 16610 l0 -300 115 0 115 0 0 300 0 300 -115 0 -115 0 0 -300z"/>
<path d="M22332 15426 c-29 -8 -55 -16 -58 -19 -3 -2 3 -33 13 -68 24 -88 24
-290 0 -379 -12 -44 -14 -66 -7 -68 36 -12 98 -74 123 -121 50 -100 33 -202
-48 -287 -72 -76 -3873 -3382 -3909 -3401 -17 -9 -57 -18 -91 -21 -189 -15
-322 180 -241 354 21 46 172 179 1664 1479 903 786 1640 1431 1638 1432 -1 1
-134 -29 -295 -69 l-294 -71 -601 -523 c-330 -288 -604 -524 -608 -524 -4 0
-8 17 -10 38 l-3 37 -95 -128 -95 -127 -960 -837 c-528 -461 -971 -849 -984
-863 -86 -92 -124 -187 -128 -324 l-2 -98 -37 -36 c-107 -104 -112 -271 -11
-389 22 -26 47 -56 56 -66 13 -16 12 -21 -16 -50 -71 -74 -88 -158 -52 -252
l23 -60 6 -1760 5 -1760 22 -80 c77 -275 267 -471 548 -566 l70 -24 3495 -5
c3320 -5 3497 -6 3540 -23 150 -60 251 -180 279 -331 15 -80 15 -2240 1 -2317
-34 -181 -176 -320 -356 -349 -36 -6 -797 -10 -1984 -10 -2099 0 -1984 3
-2128 -58 -236 -99 -415 -316 -467 -568 -13 -62 -15 -224 -15 -1104 l0 -1030
180 0 180 0 0 1008 c0 1099 -2 1066 57 1174 37 67 121 143 200 181 l68 32
1990 5 c1845 5 1994 6 2047 22 312 94 521 314 583 614 23 113 22 2369 -1 2481
-58 280 -259 505 -539 601 l-80 27 -3495 5 c-3231 5 -3498 6 -3536 22 -74 29
-106 49 -157 97 -61 57 -90 102 -117 180 -20 60 -20 76 -20 1770 0 1218 3
1712 11 1717 6 3 29 -13 52 -36 50 -50 79 -66 146 -81 66 -14 144 2 205 42
l46 31 47 -17 c66 -22 166 -29 238 -16 126 23 172 56 599 429 l399 348 71 -18
c122 -30 116 -34 116 82 l0 99 1855 1616 c1021 889 1870 1635 1887 1658 75
103 110 242 90 362 -22 131 -56 183 -337 505 -141 162 -282 321 -313 352 -121
124 -294 174 -460 134z"/>
<path d="M33295 12774 c-259 -55 -486 -248 -584 -496 -53 -134 -56 -162 -56
-563 1 -348 2 -375 23 -447 79 -283 279 -488 569 -581 l68 -22 3530 -5 3530
-5 57 -23 c117 -47 213 -144 260 -260 21 -52 23 -75 26 -280 2 -135 -1 -243
-8 -275 -36 -174 -179 -314 -354 -346 -42 -8 -857 -11 -2718 -11 -1462 0
-2658 -4 -2658 -9 0 -6 97 -272 125 -344 7 -16 134 -17 2654 -15 l2646 3 77
22 c276 79 479 271 571 543 l32 95 0 300 c0 342 -3 363 -80 520 -118 239 -341
403 -603 444 -50 8 -1081 11 -3536 11 -3365 0 -3466 1 -3525 19 -85 26 -140
61 -199 126 -59 65 -96 137 -111 219 -14 78 -14 584 0 662 29 158 143 289 304
348 22 8 1068 12 3831 16 l3801 5 41 29 c73 50 100 143 67 223 -20 48 -41 71
-87 94 -36 19 -127 19 -3830 18 -3308 -1 -3802 -3 -3863 -15z"/>
<path d="M25449 11801 c-23 -18 -24 -26 -30 -193 -4 -95 -7 -240 -8 -323 -1
-176 -9 -213 -57 -254 l-35 -31 -170 0 c-189 0 -215 6 -249 63 -18 29 -20 51
-20 225 l0 192 -234 0 -234 0 -31 -31 c-17 -17 -31 -39 -31 -50 0 -16 7 -19
45 -19 55 0 90 -15 104 -47 17 -37 13 -62 -14 -88 -20 -21 -34 -25 -80 -25
l-55 0 0 -90 0 -90 55 0 c46 0 60 -4 80 -25 27 -26 31 -54 13 -88 -19 -36 -40
-46 -95 -47 l-53 0 0 -85 0 -85 45 0 c55 0 90 -15 104 -47 17 -37 13 -62 -14
-88 -20 -21 -34 -25 -80 -25 l-55 0 0 -282 c0 -163 -4 -299 -10 -320 -6 -22
-23 -46 -39 -58 -29 -20 -40 -20 -710 -20 l-681 0 -32 29 -33 29 -3 311 -3
311 -55 0 c-84 0 -123 47 -93 113 14 32 49 47 104 47 l45 0 0 85 0 85 -52 0
c-56 1 -77 11 -96 47 -18 34 -14 62 13 88 20 21 34 25 80 25 l55 0 0 90 0 90
-54 0 c-37 0 -61 6 -78 19 l-24 19 -220 -341 -221 -342 24 -18 c22 -17 23 -25
23 -132 0 -138 3 -135 -134 -135 l-95 0 -36 -52 -35 -53 140 -5 c110 -4 143
-8 150 -20 5 -8 10 -63 10 -122 0 -84 -3 -110 -16 -122 -13 -14 -50 -16 -242
-17 l-227 0 -47 -75 -47 -74 277 0 c203 0 281 -3 290 -12 18 -18 16 -232 -2
-247 -10 -8 -107 -11 -336 -11 l-323 1 -44 -132 c-24 -72 -50 -144 -58 -160
-12 -23 -15 -84 -15 -323 l0 -296 29 -32 29 -33 671 -3 671 -2 0 -271 c0 -297
3 -315 60 -344 16 -8 54 -15 85 -15 l55 0 0 -57 c0 -68 23 -122 60 -140 19
-10 132 -13 459 -13 l433 0 34 34 c32 32 34 38 34 105 l0 71 165 0 165 0 0
-83 c0 -74 3 -86 23 -105 22 -21 33 -22 173 -22 195 0 194 -1 194 121 l0 89
45 0 45 0 0 -85 c0 -125 0 -125 195 -125 195 0 195 0 195 125 l0 85 70 0 c63
0 73 3 102 29 l33 29 5 245 c5 229 6 247 26 274 40 54 23 53 682 53 561 0 616
-1 643 -17 61 -36 59 1 59 -930 0 -921 -3 -874 53 -905 13 -8 76 -15 156 -18
l134 -5 14 -42 c18 -52 87 -118 139 -132 53 -15 815 -15 868 0 51 14 123 83
140 134 l14 40 599 5 c454 4 603 8 620 18 54 30 53 26 53 450 l0 394 -47 52
c-193 214 -243 494 -132 744 15 34 26 62 25 62 -3 0 -65 -21 -104 -35 -9 -3
-7 -14 8 -42 26 -49 25 -78 -2 -133 -56 -107 -210 -106 -262 3 -20 43 -20 77
-2 122 14 34 14 35 -7 35 -12 0 -53 8 -90 19 l-67 18 0 -531 c0 -603 3 -579
-81 -624 l-43 -23 -517 3 c-505 3 -518 4 -545 24 -15 11 -37 33 -48 48 -21 27
-21 34 -21 921 0 887 0 894 21 921 11 15 33 37 48 48 26 20 42 21 400 24 l373
3 13 42 c7 23 21 59 32 80 11 22 18 40 16 40 -2 1 -17 9 -33 18 -25 12 -53 15
-141 11 -122 -5 -227 15 -331 63 l-55 25 -414 0 -414 0 0 -220 0 -220 118 0
c107 0 121 -2 137 -20 15 -16 17 -26 9 -48 l-9 -27 -128 -3 -127 -3 0 -64 0
-65 63 0 c69 0 97 -17 97 -57 0 -36 -31 -53 -98 -53 l-62 0 0 -721 0 -720 30
-26 c106 -88 61 -245 -74 -260 -73 -9 -146 47 -160 121 -9 49 23 120 63 144
l31 17 0 1113 0 1112 -75 0 -75 0 0 -326 c0 -356 -2 -373 -58 -411 -25 -17
-76 -18 -807 -23 l-780 -5 -5 -270 c-5 -291 -7 -297 -61 -329 -24 -14 -131
-16 -1117 -16 l-1089 0 -28 22 c-53 41 -55 59 -55 418 0 352 2 373 50 415 21
19 40 20 289 25 l266 5 0 380 0 380 -62 3 -63 3 0 -230 0 -231 -25 -16 c-23
-15 -27 -15 -50 0 l-25 16 0 230 0 230 -429 0 -428 0 -34 23 c-50 34 -58 68
-58 265 l-1 173 -30 26 c-45 38 -63 79 -57 131 6 53 31 91 78 114 68 35 142
14 192 -54 41 -55 17 -162 -44 -196 l-29 -17 2 -180 3 -180 553 -5 554 -5 34
-37 34 -38 0 -175 0 -175 86 0 c125 0 124 -1 124 130 0 60 4 120 10 134 12 34
54 44 80 21 18 -16 20 -32 20 -149 0 -113 -3 -135 -20 -164 -36 -59 -71 -72
-192 -72 l-108 0 0 -180 0 -180 -34 -38 -34 -37 -269 -5 -268 -5 -3 -72 -3
-73 245 0 c242 0 245 0 260 -22 21 -30 20 -44 -4 -68 -19 -19 -33 -20 -260
-20 l-240 0 0 -45 0 -45 148 0 c160 0 192 -9 192 -54 0 -49 -24 -56 -189 -56
l-152 0 3 -107 3 -108 578 -3 577 -2 0 557 c0 539 1 560 21 603 27 60 83 117
144 146 l50 24 413 0 412 0 0 113 c0 98 -3 116 -18 130 -16 15 -51 17 -273 17
-313 1 -342 9 -390 102 -16 31 -19 59 -19 161 0 107 2 126 18 140 26 23 58 21
76 -5 12 -17 16 -50 16 -140 0 -110 1 -118 23 -133 l22 -15 5 102 c5 100 6
103 33 118 27 14 29 14 53 -13 22 -25 24 -37 24 -118 l0 -89 30 0 30 0 0 148
c0 160 4 172 51 172 50 0 59 -28 59 -182 l0 -138 35 0 35 0 0 58 c0 64 11 82
50 82 39 0 50 -18 50 -81 l0 -56 45 -5 c54 -7 84 -25 122 -75 27 -35 28 -42
32 -165 l3 -128 162 0 c213 1 257 16 297 105 17 37 19 73 19 443 l0 402 -391
0 -390 0 -26 -30 c-71 -84 -188 -78 -243 12 -56 92 16 221 122 221 54 0 102
-24 125 -63 l17 -30 137 0 137 0 4 104 c3 116 14 140 78 184 l34 23 437 -3
438 -3 31 -30 c51 -49 60 -74 60 -180 l0 -95 216 0 c200 0 219 -2 249 -20 45
-28 65 -75 65 -154 l0 -66 183 0 c165 0 186 -2 200 -18 22 -24 21 -45 -1 -65
-16 -15 -45 -17 -200 -17 l-182 0 0 -50 0 -50 140 0 c127 0 142 -2 160 -20 11
-11 20 -27 20 -35 0 -8 -9 -24 -20 -35 -18 -18 -33 -20 -160 -20 l-140 0 0
-40 0 -40 183 0 c165 0 186 -2 200 -18 22 -24 21 -45 -1 -65 -16 -15 -45 -17
-200 -17 l-182 0 0 -140 0 -140 481 0 481 0 -42 47 c-105 119 -161 275 -161
443 0 125 16 194 72 310 38 77 55 98 192 233 l151 149 -146 -4 c-144 -3 -147
-3 -189 -33 -52 -37 -79 -86 -79 -142 l0 -43 -121 0 c-93 0 -127 4 -148 16
-57 33 -56 25 -61 484 -3 234 -9 433 -13 442 -18 36 -54 48 -142 48 l-85 0 0
-172 c0 -95 -5 -190 -10 -210 -6 -20 -26 -50 -46 -67 l-35 -31 -170 0 c-189 0
-215 6 -249 63 -18 29 -20 51 -20 225 0 164 -2 192 -15 192 -13 0 -15 23 -15
148 0 81 -4 152 -8 158 -7 11 -45 34 -56 34 -3 0 -6 -83 -6 -183 0 -219 1
-217 -101 -217 -110 0 -109 -2 -109 216 0 101 -4 184 -9 184 -5 0 -19 -9 -32
-19 -23 -18 -24 -25 -27 -170 -2 -83 -7 -151 -12 -151 -5 0 -10 -92 -12 -205
l-3 -205 -33 -32 -32 -33 -178 -3 c-196 -3 -211 1 -249 57 -22 32 -23 43 -23
227 0 123 -4 194 -10 194 -6 0 -10 56 -10 148 0 152 -5 172 -42 185 -17 6 -18
-6 -18 -164 0 -165 -6 -202 -34 -221 -6 -4 -41 -8 -78 -8 -107 0 -108 1 -108
220 0 99 -4 180 -9 180 -5 0 -19 -9 -32 -19z m-3171 -2463 c8 -8 12 -50 12
-123 0 -73 -4 -115 -12 -123 -9 -9 -96 -12 -330 -12 -303 0 -318 1 -328 19 -5
11 -10 63 -10 116 0 53 5 105 10 116 10 18 25 19 328 19 234 0 321 -3 330 -12z
m-10 -384 c21 -14 22 -23 22 -128 0 -74 -4 -116 -12 -124 -9 -9 -95 -12 -324
-12 -271 0 -315 2 -328 16 -13 12 -16 38 -16 120 0 155 -26 144 338 144 253 0
301 -2 320 -16z m7121 -1168 c9 -10 11 -114 9 -383 l-3 -370 -27 -39 c-15 -21
-44 -50 -65 -64 -36 -25 -37 -25 -314 -28 l-278 -3 -17 26 c-15 23 -15 27 0
50 l16 25 246 0 c192 0 252 3 280 15 62 26 64 41 64 423 0 249 3 341 12 350
16 16 63 15 77 -2z"/>
<path d="M23339 11651 l-29 -29 0 -652 c0 -592 2 -655 17 -680 9 -16 26 -31
37 -34 12 -3 161 -6 331 -6 l310 0 28 25 27 26 0 654 c0 458 -3 661 -11 678
-20 44 -42 47 -370 47 l-311 0 -29 -29z"/>
<path d="M25572 10734 c-20 -14 -22 -23 -22 -105 l0 -89 436 0 436 0 -4 91
c-2 76 -6 93 -22 105 -16 11 -89 14 -411 14 -337 0 -394 -2 -413 -16z"/>
<path d="M26060 10200 l0 -230 222 0 c205 0 225 -2 266 -21 26 -13 54 -38 70
-62 27 -40 27 -43 32 -248 l5 -207 28 -22 c37 -30 57 -71 57 -121 0 -143 -194
-196 -271 -73 -38 63 -16 159 46 200 l25 16 0 194 c0 181 -1 195 -20 214 -19
19 -33 20 -239 20 l-219 0 -4 -133 c-3 -121 -6 -138 -31 -190 -29 -58 -86
-114 -142 -139 -23 -10 -175 -14 -680 -18 l-650 -5 -40 -23 c-82 -49 -93 -85
-94 -305 l-1 -177 203 2 202 3 5 110 c5 116 14 140 62 173 20 15 69 17 408 20
212 2 405 0 429 -3 32 -5 54 -16 78 -40 33 -33 33 -34 33 -127 0 -102 -7 -118
-51 -118 -39 0 -48 17 -51 100 l-3 75 -397 3 -398 2 0 -95 c0 -107 -13 -150
-55 -183 -27 -21 -37 -22 -246 -22 l-219 0 0 -310 0 -310 434 0 435 0 3 269
c4 383 -21 361 411 361 l297 0 0 86 c0 96 15 142 58 171 23 15 53 19 197 21
190 4 226 -2 270 -48 28 -30 30 -36 33 -131 l4 -99 189 0 189 0 0 825 0 825
-440 0 -440 0 0 -230z"/>
<path d="M26110 8865 l0 -85 170 0 170 0 0 85 0 85 -170 0 -170 0 0 -85z"/>
<path d="M27977 8922 c-16 -17 -17 -85 -17 -769 0 -714 1 -751 18 -766 17 -15
62 -17 443 -17 233 0 429 4 435 8 32 21 34 52 34 547 l0 495 -72 73 c-40 40
-90 102 -111 138 -40 69 -87 202 -87 249 0 63 18 60 -320 60 -285 0 -308 -1
-323 -18z"/>
<path d="M38530 8548 c-67 -46 -75 -66 -78 -209 l-4 -129 -1504 0 c-827 0
-1504 -2 -1504 -5 0 -3 30 -86 66 -185 l67 -180 1438 0 1439 0 0 -120 c0 -85
4 -129 14 -148 19 -36 65 -78 99 -91 19 -8 264 -11 749 -11 712 0 722 0 765
21 29 14 52 35 68 63 l25 43 0 430 0 430 -23 34 c-12 18 -38 44 -56 56 l-34
23 -747 0 -747 0 -33 -22z m1480 -71 c32 -16 60 -74 53 -109 -3 -15 -17 -39
-30 -53 l-26 -25 -203 0 c-200 0 -203 0 -231 24 -24 21 -28 32 -28 76 0 44 4
55 28 76 28 24 31 24 220 24 133 0 200 -4 217 -13z"/>
<path d="M30078 7902 c2 -20 19 -156 38 -302 19 -146 92 -735 163 -1310 76
-615 136 -1064 146 -1092 30 -85 127 -174 220 -199 19 -6 35 -15 35 -21 0 -23
73 -129 126 -182 74 -73 191 -132 292 -146 270 -37 539 147 631 432 8 25 27
48 60 71 49 35 107 112 118 156 5 20 0 30 -28 50 -267 203 -672 588 -854 814
-206 255 -499 787 -810 1472 -70 154 -130 283 -134 287 -4 5 -5 -9 -3 -30z"/>
</g>
</svg>
