<?xml version="1.0" encoding="iso-8859-1"?>
<!-- Generator: Adobe Illustrator 19.0.0, SVG Export Plug-In . SVG Version: 6.00 Build 0)  -->
<svg version="1.1" id="Layer_1" xmlns="http://www.w3.org/2000/svg" xmlns:xlink="http://www.w3.org/1999/xlink" x="0px" y="0px"
	 viewBox="0 0 512 512" style="enable-background:new 0 0 512 512;" xml:space="preserve">
<path style="fill:#80D0E1;" d="M401.702,512H110.298c-22.525,0-40.851-18.326-40.851-40.851V40.851
	C69.447,18.326,87.773,0,110.298,0h291.404c22.525,0,40.851,18.326,40.851,40.851v430.298C442.553,493.674,424.227,512,401.702,512z
	"/>
<path style="fill:#51B3DA;" d="M401.702,0H256v512h145.702c22.525,0,40.851-18.326,40.851-40.851V40.851
	C442.553,18.326,424.227,0,401.702,0z"/>
<path style="fill:#FFEDBE;" d="M442.553,408.027H69.447V103.973h373.106V408.027z"/>
<rect x="256" y="103.98" style="fill:#FFDA79;" width="186.553" height="304.054"/>
<path style="fill:#FF5E5B;" d="M325.447,235.574h-49.021v-49.021c0-11.28-9.145-20.426-20.426-20.426
	c-11.28,0-20.426,9.145-20.426,20.426v49.021h-49.021c-11.28,0-20.426,9.145-20.426,20.426c0,11.28,9.145,20.426,20.426,20.426
	h49.021v49.021c0,11.28,9.145,20.426,20.426,20.426c11.28,0,20.426-9.145,20.426-20.426v-49.021h49.021
	c11.28,0,20.426-9.145,20.426-20.426C345.872,244.72,336.727,235.574,325.447,235.574z"/>
<path style="fill:#FF423D;" d="M325.447,235.574h-49.021v-49.021c0-11.28-9.145-20.426-20.426-20.426v179.745
	c11.28,0,20.426-9.145,20.426-20.426v-49.021h49.021c11.28,0,20.426-9.145,20.426-20.426
	C345.872,244.72,336.727,235.574,325.447,235.574z"/>
<g>
	<circle style="fill:#51B3DA;" cx="256" cy="458.744" r="21.185"/>
	<circle style="fill:#51B3DA;" cx="165.365" cy="458.744" r="12.782"/>
</g>
<g>
	<path style="fill:#39A3DB;" d="M256,437.554v42.371c11.7,0,21.185-9.484,21.185-21.185C277.185,447.039,267.7,437.554,256,437.554z
		"/>
	<circle style="fill:#39A3DB;" cx="346.635" cy="458.744" r="12.782"/>
</g>
<path style="fill:#51B3DA;" d="M278.468,70.355h-44.936c-11.28,0-20.426-9.145-20.426-20.426s9.145-20.426,20.426-20.426h44.936
	c11.28,0,20.426,9.145,20.426,20.426S289.748,70.355,278.468,70.355z"/>
<path style="fill:#39A3DB;" d="M278.468,29.504H256v40.851h22.468c11.28,0,20.426-9.145,20.426-20.426
	S289.748,29.504,278.468,29.504z"/>
<g>
</g>
<g>
</g>
<g>
</g>
<g>
</g>
<g>
</g>
<g>
</g>
<g>
</g>
<g>
</g>
<g>
</g>
<g>
</g>
<g>
</g>
<g>
</g>
<g>
</g>
<g>
</g>
<g>
</g>
</svg>
