<?xml version="1.0" standalone="no"?>
<!DOCTYPE svg PUBLIC "-//W3C//DTD SVG 20010904//EN"
 "http://www.w3.org/TR/2001/REC-SVG-20010904/DTD/svg10.dtd">
<svg version="1.0" xmlns="http://www.w3.org/2000/svg"
 width="3888.000000pt" height="2778.000000pt" viewBox="0 0 3888.000000 2778.000000"
 preserveAspectRatio="xMidYMid meet">
<metadata>
Created by potrace 1.16, written by Peter Selinger 2001-2019
</metadata>
<g transform="translate(0.000000,2778.000000) scale(0.100000,-0.100000)"
fill="#000000" stroke="none">
<path d="M21660 16787 l0 -8062 133 -27 c234 -48 283 -53 522 -52 295 0 465
22 760 99 489 128 1010 396 1530 786 510 382 1114 985 1505 1503 l41 55 -17
32 c-9 18 -20 60 -24 94 -6 51 -4 66 13 97 47 86 170 123 261 78 63 -30 106
-93 113 -165 5 -43 3 -55 -8 -55 -8 0 -25 -21 -38 -46 -35 -65 -93 -97 -167
-92 l-57 3 -112 -140 c-788 -989 -1733 -1753 -2590 -2095 -306 -122 -697 -215
-1010 -240 -234 -19 -509 0 -735 50 -49 11 -97 20 -105 20 -13 0 -15 -88 -15
-754 l0 -754 33 -11 c306 -96 689 -165 1137 -206 932 -86 1750 65 2413 444
l123 70 100 128 c226 289 385 538 567 883 341 650 638 1572 776 2410 12 69 23
137 25 151 4 21 -2 29 -31 45 -68 36 -130 179 -91 208 8 6 22 25 31 41 49 96
164 132 253 80 57 -33 84 -81 94 -163 8 -59 6 -71 -12 -100 -25 -41 -73 -78
-117 -89 l-35 -9 -27 -163 c-150 -891 -429 -1762 -786 -2451 -139 -269 -334
-590 -447 -735 l-31 -40 41 32 c72 56 319 299 379 373 43 52 56 76 52 92 -11
42 57 127 118 148 31 10 74 69 188 255 129 210 329 663 383 868 l18 68 -32 25
c-59 46 -104 173 -70 198 8 6 22 25 31 41 20 40 54 71 99 90 51 21 94 19 146
-6 60 -29 92 -81 102 -166 8 -60 6 -72 -12 -101 -27 -45 -74 -78 -128 -92
l-45 -11 -43 -137 c-108 -339 -276 -691 -467 -977 l-34 -49 37 -21 c53 -29 92
-93 99 -160 5 -43 3 -55 -8 -55 -8 0 -25 -21 -38 -46 -57 -107 -212 -127 -294
-36 -18 20 -20 18 -190 -151 -166 -165 -307 -286 -461 -392 -43 -30 -116 -97
-178 -165 -575 -628 -1264 -1013 -2059 -1149 -409 -70 -712 -76 -1080 -21
-139 20 -371 74 -471 109 l-58 20 0 -2260 0 -2259 7520 0 7520 0 0 11585 0
11585 -7520 0 -7520 0 0 -8063z m4684 6192 c56 -14 109 -58 135 -112 24 -49
29 -129 8 -121 -8 3 -18 -9 -25 -29 -27 -75 -124 -128 -205 -113 -38 7 -108
61 -128 97 -5 10 -13 46 -18 81 -8 57 -7 67 15 105 24 42 71 78 122 93 38 12
47 11 96 -1z m1166 1 c0 -5 17 -14 38 -19 95 -26 160 -112 148 -197 -10 -79
-76 -149 -152 -161 -19 -3 -34 -10 -34 -15 0 -16 -68 1 -105 25 -18 11 -45 41
-61 66 -70 111 -9 261 124 301 37 11 42 11 42 0z m4613 -15 c45 -21 80 -56
101 -99 17 -37 22 -131 6 -121 -5 3 -16 -9 -23 -27 -42 -97 -155 -145 -240
-102 -73 37 -109 91 -110 166 0 26 -4 48 -9 48 -22 0 38 93 76 116 77 47 130
52 199 19z m1137 15 c0 -5 18 -15 39 -21 124 -37 178 -167 112 -271 -28 -44
-95 -88 -133 -88 -9 0 -18 -5 -20 -11 -6 -19 -71 -2 -115 30 -57 41 -87 106
-81 179 6 88 50 143 143 179 38 15 55 16 55 3z m-6246 -54 c47 -35 67 -75 76
-155 8 -61 7 -67 -21 -107 -80 -116 -256 -110 -332 11 -14 22 -29 60 -33 83
-6 36 -3 46 15 63 11 11 21 24 21 29 0 17 64 83 95 97 49 22 136 12 179 -21z
m5715 20 c42 -22 89 -81 95 -118 17 -114 16 -124 -13 -166 -79 -107 -237 -107
-323 0 -26 33 -33 52 -36 99 -3 37 -1 59 6 59 6 0 14 9 17 21 10 31 66 90 100
105 40 18 119 17 154 0z m-6381 -1538 c57 -14 126 -79 141 -134 16 -57 14
-105 -3 -98 -9 3 -16 -4 -20 -21 -10 -38 -72 -102 -113 -116 -75 -25 -164 7
-211 76 -12 17 -26 59 -31 95 -8 60 -7 69 15 107 24 42 71 78 122 93 38 12 47
11 100 -2z m1162 2 c0 -5 17 -14 38 -19 95 -26 160 -112 148 -197 -10 -79 -76
-149 -152 -161 -19 -3 -34 -10 -34 -15 0 -16 -68 1 -105 25 -40 26 -73 72 -86
122 -27 98 42 213 149 245 37 11 42 11 42 0z m4616 -16 c42 -20 78 -56 98 -98
17 -36 22 -131 7 -122 -5 4 -19 -15 -31 -40 -33 -67 -86 -99 -166 -99 -55 0
-67 4 -101 31 -53 43 -75 85 -76 144 0 28 -4 50 -9 50 -22 0 38 93 76 116 76
46 132 51 202 18z m1134 16 c0 -5 18 -15 39 -21 124 -37 178 -167 112 -271
-28 -44 -95 -88 -134 -88 -9 0 -17 -4 -17 -10 0 -5 -10 -10 -22 -10 -38 0
-107 40 -140 83 -31 38 -33 46 -33 117 0 63 4 81 25 112 27 40 65 66 120 85
45 15 50 15 50 3z m-6245 -54 c45 -34 71 -90 78 -168 5 -51 3 -60 -24 -96
-106 -145 -338 -84 -365 95 -5 37 -3 47 15 64 11 11 21 24 21 29 0 17 64 83
95 97 50 22 136 12 180 -21z m5714 20 c42 -22 89 -81 95 -118 18 -120 17 -128
-14 -168 -84 -106 -237 -105 -324 3 -24 30 -31 49 -34 97 -3 36 0 60 6 60 5 0
15 13 22 29 14 35 60 81 98 97 38 17 118 17 151 0z m-6385 -1537 c56 -14 109
-58 135 -112 24 -50 29 -129 7 -121 -9 3 -16 -4 -20 -21 -11 -44 -71 -101
-121 -115 -118 -33 -215 38 -234 170 -8 60 -7 69 15 107 24 42 71 78 122 93
38 12 47 11 96 -1z m1166 1 c0 -5 17 -14 38 -19 95 -26 160 -112 148 -197 -10
-79 -76 -149 -152 -161 -19 -3 -34 -10 -34 -15 0 -16 -68 1 -105 25 -18 11
-45 41 -61 66 -70 111 -9 261 124 301 37 11 42 11 42 0z m4613 -15 c74 -35
117 -101 117 -180 0 -25 -4 -44 -9 -41 -5 4 -19 -15 -31 -40 -42 -85 -153
-128 -231 -89 -75 38 -111 91 -112 167 0 26 -4 48 -9 48 -22 0 38 93 76 116
77 47 130 52 199 19z m1137 15 c0 -5 18 -15 39 -21 124 -37 178 -167 112 -271
-28 -44 -95 -88 -133 -88 -9 0 -18 -5 -20 -11 -6 -19 -71 -2 -115 30 -57 41
-87 106 -81 179 6 88 50 143 143 179 38 15 55 16 55 3z m-6246 -54 c47 -35 67
-75 76 -155 8 -61 7 -67 -21 -107 -80 -116 -256 -110 -332 11 -14 22 -29 60
-33 83 -6 36 -3 46 15 63 11 11 21 24 21 29 0 17 64 83 95 97 49 22 136 12
179 -21z m5715 20 c42 -22 89 -81 95 -118 17 -114 16 -124 -13 -166 -79 -107
-237 -107 -323 0 -26 33 -33 52 -36 99 -3 37 -1 59 6 59 6 0 14 9 17 21 10 31
66 90 100 105 40 18 119 17 154 0z m-7829 -2801 l0 -565 -55 0 -55 0 0 565 0
565 55 0 55 0 0 -565z m840 0 l0 -565 -55 0 -55 0 0 565 0 565 55 0 55 0 0
-565z m1680 0 l0 -565 -55 0 -55 0 0 565 0 565 55 0 55 0 0 -565z m1260 0 l0
-565 -55 0 -55 0 0 565 0 565 55 0 55 0 0 -565z m-5580 -1961 c0 -154 0 -155
28 -190 15 -20 70 -72 122 -116 140 -120 300 -189 415 -180 51 4 128 24 163
41 l33 17 -89 77 -90 77 -201 0 -201 0 0 215 0 215 235 0 235 0 0 -185 0 -184
90 -78 c50 -43 95 -79 100 -81 6 -2 33 19 62 47 46 44 50 51 31 51 l-23 0 0
215 0 215 235 0 235 0 0 -215 0 -215 -148 0 -148 0 -74 -75 c-41 -41 -72 -76
-69 -78 22 -21 102 -49 163 -59 59 -9 87 -9 131 1 82 18 203 83 269 143 l58
53 -1 223 -2 222 231 0 230 0 0 -193 0 -193 95 -79 c181 -152 353 -206 508
-160 51 15 167 74 167 84 0 4 -27 30 -59 59 l-60 52 -235 0 -236 0 0 215 0
215 235 0 235 0 0 -146 0 -146 96 -95 95 -96 35 34 34 33 0 208 0 208 235 0
235 0 0 -209 0 -209 66 -56 c36 -31 69 -56 73 -56 4 0 32 22 62 50 l54 49 -37
1 -38 0 0 215 0 215 235 0 235 0 0 -215 0 -215 -135 0 -135 0 -75 -77 c-41
-43 -75 -79 -75 -79 0 -10 116 -47 173 -56 63 -9 84 -9 142 6 107 27 229 99
304 180 24 26 24 26 3 26 -22 0 -22 1 -22 215 l0 215 230 0 230 0 0 -215 0
-215 -147 0 -146 0 -53 -59 c-30 -32 -84 -81 -121 -109 -208 -153 -410 -178
-614 -76 l-66 33 -62 -29 c-181 -86 -325 -80 -521 20 -87 44 -97 47 -115 33
-11 -8 -50 -30 -86 -48 -249 -127 -488 -69 -759 182 l-58 53 -117 0 -118 0
-97 -93 c-224 -216 -463 -268 -692 -151 l-68 34 -58 -29 c-225 -113 -463 -66
-702 139 -52 44 -96 85 -98 90 -2 6 -94 10 -228 10 l-224 0 0 215 0 215 230 0
230 0 0 -156z m6210 -2 l0 -157 31 -38 c56 -68 203 -184 288 -226 102 -52 196
-72 277 -59 60 9 157 46 152 58 -2 3 -40 39 -85 78 l-82 72 -200 0 -201 0 0
215 0 215 235 0 235 0 0 -184 0 -183 48 -44 c26 -24 68 -62 94 -83 l47 -38 28
20 c15 11 41 34 57 51 28 30 29 31 8 31 -22 0 -22 1 -22 215 l0 215 230 0 230
0 0 -215 0 -215 -144 0 -145 0 -75 -77 c-42 -42 -74 -77 -73 -78 1 0 24 -11
51 -23 27 -13 84 -28 126 -34 66 -10 85 -9 141 6 35 10 87 30 114 44 81 41
228 162 197 162 -9 0 -12 57 -12 215 l0 215 235 0 235 0 0 -194 0 -193 89 -76
c138 -117 319 -195 418 -180 108 17 222 60 252 96 10 13 9 17 -6 26 -10 5 -36
28 -58 50 l-40 40 -237 1 -238 0 0 215 0 215 235 0 235 0 0 -144 0 -145 48
-54 c26 -30 69 -73 96 -96 l49 -42 33 32 34 33 0 208 0 208 235 0 235 0 0
-209 0 -209 64 -57 c73 -64 75 -64 141 4 l39 41 -32 0 -32 0 0 215 0 215 230
0 230 0 0 -215 0 -215 -133 0 -133 0 -74 -75 c-41 -41 -72 -76 -69 -78 21 -20
98 -47 161 -58 62 -10 87 -10 135 0 100 23 261 116 327 190 19 21 19 21 -7 21
l-27 0 0 215 0 215 235 0 235 0 0 -215 0 -215 -146 0 -145 0 -62 -63 c-152
-153 -279 -220 -462 -242 -67 -8 -181 18 -268 61 l-67 34 -58 -29 c-171 -87
-342 -80 -528 19 l-92 48 -37 -25 c-245 -166 -513 -130 -788 106 l-105 91
-117 0 -116 0 -56 -61 c-180 -194 -400 -279 -598 -231 -45 11 -107 33 -140 49
l-59 30 -55 -25 c-195 -87 -329 -83 -525 15 -63 31 -122 73 -192 134 l-102 89
-221 0 -221 0 0 215 0 215 235 0 235 0 0 -158z m-6210 -1020 l0 -158 36 -42
c72 -84 208 -189 299 -232 152 -70 268 -75 381 -16 l42 21 -84 73 -83 72 -206
0 -205 0 0 220 0 220 235 0 235 0 0 -183 0 -183 48 -45 c68 -66 134 -119 147
-119 6 0 33 20 60 45 43 38 47 44 28 45 l-23 0 0 220 0 220 235 0 235 0 0
-220 0 -220 -150 0 -149 0 -74 -74 -74 -74 57 -26 c114 -52 251 -45 375 17 59
29 158 100 184 130 9 12 12 72 11 241 l-1 226 231 0 230 0 0 -194 0 -193 88
-75 c110 -95 237 -161 343 -179 66 -11 84 -10 143 5 68 17 179 67 191 86 3 5
-11 24 -32 42 -20 18 -46 41 -56 51 -17 17 -39 18 -258 17 l-239 -1 0 221 0
220 235 0 235 0 0 -144 0 -144 48 -56 c44 -52 137 -136 150 -136 3 0 19 12 34
27 l28 27 0 213 0 213 235 0 235 0 1 -212 0 -213 68 -57 68 -57 54 49 54 49
-32 1 -33 0 0 220 0 220 235 0 235 0 0 -220 0 -220 -138 0 -138 0 -75 -74 -74
-73 65 -29 c57 -25 77 -28 166 -29 100 0 101 0 195 47 97 48 232 157 197 158
-17 0 -18 17 -18 220 l0 220 230 0 230 0 0 -220 0 -220 -148 0 -148 0 -64 -66
c-114 -116 -227 -185 -360 -219 -113 -29 -233 -14 -363 47 l-67 32 -58 -28
c-82 -41 -145 -56 -237 -56 -108 0 -173 17 -286 76 -97 50 -97 50 -120 31 -35
-29 -127 -73 -188 -91 -69 -20 -205 -21 -281 -1 -92 24 -222 99 -328 191 l-97
83 -124 1 -124 0 -54 -59 c-127 -141 -325 -241 -476 -241 -76 0 -175 24 -252
62 l-63 31 -74 -31 c-40 -17 -91 -36 -113 -41 -56 -15 -189 -13 -258 3 -88 22
-221 99 -329 192 l-97 84 -220 0 -221 0 0 220 0 220 230 0 230 0 0 -158z
m6210 -3 l0 -162 37 -41 c134 -148 312 -257 455 -277 77 -11 89 -11 153 9 119
36 119 38 34 112 -41 34 -75 67 -77 71 -2 5 -98 9 -213 9 l-209 0 0 220 0 220
235 0 235 0 0 -184 c0 -212 -10 -186 112 -290 77 -66 84 -66 143 -6 28 29 34
40 22 40 -15 0 -17 19 -17 220 l0 220 230 0 230 0 0 -220 0 -220 -148 0 -148
0 -72 -73 -73 -74 59 -26 c113 -51 252 -47 367 11 86 42 238 162 207 162 -9 0
-12 60 -12 220 l0 220 235 0 235 0 0 -195 0 -194 88 -77 c104 -92 233 -157
342 -175 90 -15 154 -2 265 53 l80 41 -60 53 -60 54 -237 0 -238 0 0 220 0
220 235 0 235 0 0 -150 0 -150 96 -96 96 -96 34 33 34 33 0 213 0 213 235 0
235 0 0 -213 0 -213 69 -56 68 -57 54 49 54 49 -32 1 -33 0 0 220 0 220 230 0
230 0 0 -220 0 -220 -134 0 -134 0 -74 -74 -75 -75 58 -26 c73 -32 196 -44
266 -25 94 26 236 111 297 179 19 21 19 21 -2 21 -22 0 -22 1 -22 220 l0 220
235 0 235 0 0 -220 0 -220 -151 0 -150 0 -51 -56 c-134 -146 -327 -244 -481
-244 -76 0 -176 25 -252 62 l-65 32 -47 -23 c-85 -42 -163 -61 -252 -61 -107
0 -183 20 -289 77 -83 45 -86 46 -111 30 -48 -31 -156 -79 -206 -93 -63 -17
-193 -17 -266 0 -92 22 -215 93 -326 188 l-102 88 -123 0 -123 0 -60 -61
c-156 -158 -317 -238 -475 -239 -77 0 -195 31 -259 67 l-54 32 -61 -31 c-83
-42 -147 -58 -238 -58 -108 0 -169 15 -278 70 -68 34 -123 73 -192 134 l-98
86 -225 0 -225 0 0 220 0 220 235 0 235 0 0 -161z m-1800 -2618 c0 -4 15 -11
34 -14 45 -7 97 -43 124 -84 55 -83 30 -189 -56 -244 -25 -16 -54 -29 -63 -29
-10 0 -24 -7 -32 -15 -32 -31 -133 23 -174 93 -65 110 -10 254 112 294 30 9
55 9 55 -1z m4621 -14 c62 -33 101 -92 107 -162 3 -36 1 -55 -7 -55 -6 0 -20
-18 -31 -39 -32 -63 -81 -95 -154 -99 -53 -3 -66 0 -103 24 -54 36 -87 94 -87
156 0 27 -3 48 -7 48 -14 0 3 38 32 73 62 75 167 98 250 54z m1129 13 c0 -5 8
-10 17 -10 9 0 37 -10 61 -21 87 -42 126 -150 86 -235 -20 -42 -77 -91 -116
-99 -15 -4 -35 -13 -43 -22 -29 -29 -132 22 -176 86 -20 30 -24 48 -24 111 0
70 2 79 33 117 17 22 51 50 75 62 45 22 87 28 87 11z m-530 -30 c59 -30 93
-81 98 -148 3 -31 8 -59 13 -62 8 -5 -7 -39 -36 -81 -17 -25 -67 -56 -112 -69
-72 -22 -166 18 -213 89 -31 47 -39 131 -15 157 9 11 26 34 38 53 27 43 98 81
149 81 21 0 56 -9 78 -20z m-6326 -1561 c53 -35 87 -92 93 -155 5 -45 3 -54
-10 -54 -9 0 -19 -10 -23 -22 -37 -119 -198 -157 -298 -69 -29 26 -48 71 -56
136 -7 54 -5 64 18 101 42 67 97 94 184 90 40 -1 66 -9 92 -27z m1106 22 c0
-4 15 -11 34 -14 45 -7 97 -43 124 -84 55 -83 30 -189 -56 -244 -25 -16 -54
-29 -63 -29 -10 0 -24 -7 -32 -15 -32 -31 -133 23 -174 93 -65 110 -10 254
112 294 30 9 55 9 55 -1z m4621 -14 c62 -33 101 -92 107 -162 3 -36 1 -55 -7
-55 -6 0 -20 -18 -31 -39 -32 -63 -81 -95 -154 -99 -53 -3 -66 0 -103 24 -54
36 -87 94 -87 156 0 27 -3 48 -7 48 -14 0 3 38 32 73 62 75 167 98 250 54z
m1129 13 c0 -5 8 -10 17 -10 9 0 37 -10 61 -21 87 -42 126 -150 86 -235 -20
-42 -77 -91 -116 -99 -15 -4 -35 -13 -43 -22 -29 -29 -132 22 -176 86 -20 30
-24 48 -24 108 0 63 3 76 30 114 17 23 50 53 74 66 46 24 91 30 91 13z m-537
-26 c69 -35 107 -95 107 -169 0 -25 4 -45 10 -45 24 0 -33 -90 -74 -117 -56
-37 -110 -48 -157 -34 -94 28 -150 91 -157 177 -3 39 0 56 13 70 9 11 26 34
38 53 44 69 150 100 220 65z m-5213 -1543 c0 -4 15 -11 34 -14 45 -7 97 -43
124 -84 55 -83 30 -189 -56 -244 -25 -16 -54 -29 -63 -29 -10 0 -24 -7 -32
-15 -32 -31 -133 23 -174 93 -65 110 -10 254 112 294 30 9 55 9 55 -1z m4621
-14 c62 -33 101 -92 107 -162 3 -36 1 -55 -7 -55 -6 0 -20 -18 -31 -39 -32
-63 -81 -95 -154 -99 -53 -3 -66 0 -103 24 -54 36 -87 94 -87 156 0 27 -3 48
-7 48 -14 0 3 38 32 73 62 75 167 98 250 54z m1129 13 c0 -5 8 -10 17 -10 9 0
37 -10 61 -21 87 -42 126 -150 86 -235 -20 -42 -77 -91 -116 -99 -15 -4 -35
-13 -43 -22 -29 -29 -132 22 -176 86 -20 30 -24 48 -24 111 0 70 2 79 33 117
17 22 51 50 75 62 45 22 87 28 87 11z m-6251 -43 c47 -31 77 -91 84 -170 5
-53 3 -60 -26 -99 -113 -147 -333 -86 -363 101 -5 34 -4 47 8 55 8 6 22 25 31
41 20 39 64 80 102 93 47 18 119 8 164 -21z m5721 13 c59 -30 93 -81 98 -148
3 -31 8 -59 13 -62 8 -5 -7 -39 -36 -81 -17 -25 -67 -56 -112 -69 -72 -22
-166 18 -213 89 -31 47 -39 131 -15 157 9 11 26 34 38 53 27 43 98 81 149 81
21 0 56 -9 78 -20z"/>
<path d="M26091 14716 l-54 -54 84 -43 c98 -50 187 -68 272 -57 57 8 158 44
156 57 0 3 -38 39 -84 79 l-84 72 -118 0 -119 0 -53 -54z"/>
<path d="M32296 14714 c-27 -30 -47 -56 -45 -59 18 -17 187 -84 230 -91 87
-13 191 3 258 40 23 13 22 14 -58 82 -44 38 -81 72 -81 76 0 5 -57 8 -127 7
l-128 -1 -49 -54z"/>
<path d="M26088 13686 l-46 -52 82 -41 c113 -56 210 -72 302 -49 61 15 124 41
124 50 0 2 -38 36 -84 75 l-83 71 -124 -1 -124 0 -47 -53z"/>
<path d="M32294 13687 l-50 -53 90 -42 c155 -71 257 -77 385 -21 38 17 43 22
30 32 -8 7 -46 41 -85 75 l-72 62 -123 0 -124 -1 -51 -52z"/>
<path d="M15860 16080 l-3675 -5 -66 -32 c-40 -20 -85 -53 -113 -83 -94 -101
-76 -2 -298 -1613 -111 -799 -204 -1455 -207 -1459 -3 -3 -39 30 -80 75 -146
163 -232 231 -386 307 -212 105 -504 195 -815 251 -69 12 -127 23 -129 25 -2
2 -9 34 -17 71 -8 37 -16 78 -19 90 -4 16 -15 24 -39 28 -33 7 -33 8 -40 67
-11 105 -11 103 40 123 63 24 117 81 143 149 20 54 21 74 21 441 l0 385 43 21
c62 32 196 172 236 248 49 93 47 157 -6 260 -47 91 -107 142 -202 171 -77 24
-186 26 -261 4 -139 -40 -138 -40 -225 -4 -115 46 -174 44 -264 -9 -100 -59
-224 -163 -260 -217 -17 -26 -31 -51 -31 -55 0 -4 -17 -10 -38 -14 -52 -10
-128 -53 -164 -94 -94 -107 -123 -316 -69 -491 14 -44 21 -93 21 -150 0 -117
17 -241 41 -307 25 -66 64 -112 136 -160 l55 -36 -7 -66 c-3 -36 -9 -81 -12
-99 -6 -33 -6 -34 -48 -28 l-42 7 -32 -122 c-17 -67 -29 -124 -26 -127 3 -3
85 -9 183 -14 173 -8 475 -33 540 -44 17 -4 32 -12 32 -18 0 -8 46 -18 133
-30 564 -76 1047 -226 1264 -393 161 -123 434 -444 1313 -1543 199 -250 365
-457 366 -459 2 -2 536 -79 1186 -171 l1183 -166 3 -192 c1 -117 6 -192 12
-192 6 0 10 -45 10 -110 l0 -110 -1676 0 c-1026 0 -1673 4 -1669 9 4 8 -826
697 -884 733 -18 11 -23 11 -31 -2 -10 -16 14 -43 88 -100 l32 -26 65 -1029
c35 -567 67 -1057 70 -1090 l5 -61 -81 -134 c-91 -152 -168 -258 -247 -342
-34 -36 -52 -63 -49 -72 7 -19 -95 -113 -210 -194 l-81 -57 4 -40 c10 -88 64
-841 64 -891 l0 -54 953 -2 952 -3 37 -28 c101 -78 103 -246 4 -322 -37 -28
-96 -44 -96 -26 0 8 -704 11 -2690 11 -1787 0 -2690 -3 -2690 -10 0 -16 -30
-11 -60 10 -61 43 -126 188 -154 342 -9 46 -38 389 -66 763 -27 374 -52 695
-54 713 -4 23 -1 32 10 32 8 0 14 1 14 3 0 20 -268 3546 -293 3842 -36 450
-40 647 -14 770 21 98 54 166 87 182 20 10 369 13 1593 13 1560 0 1567 0 1567
20 0 20 -7 20 -1580 20 -1711 0 -1616 3 -1652 -52 -22 -33 -45 -111 -63 -211
-25 -134 -17 -277 78 -1512 48 -616 87 -1136 87 -1155 l0 -35 -1470 3 -1470 3
0 -151 0 -150 350 0 350 0 0 -4115 0 -4115 1625 0 1625 0 0 1260 0 1260 830 0
c784 0 830 -1 830 -17 0 -10 -32 -196 -70 -413 -39 -217 -70 -400 -70 -407 0
-7 18 -16 40 -19 22 -4 40 -9 40 -13 0 -26 -184 -918 -191 -926 -5 -5 -9 -103
-9 -217 l0 -208 -428 0 -429 0 -61 -30 c-94 -47 -150 -124 -167 -227 l-7 -43
1660 0 1661 0 -6 38 c-8 53 -45 132 -81 170 l-31 33 244 -3 244 -3 30 -29 c42
-40 49 -85 22 -137 -24 -46 -19 -69 10 -43 26 24 43 85 35 127 -9 48 -41 86
-91 107 -23 10 -52 32 -64 49 -48 68 -143 118 -681 361 -294 132 -538 244
-542 248 -4 4 30 141 75 304 l82 297 55 3 55 3 57 150 c68 177 191 550 239
723 l34 122 716 0 716 0 -9 -50 c-73 -401 -185 -1056 -182 -1062 2 -3 22 -9
44 -13 22 -4 40 -12 40 -18 0 -40 -125 -635 -137 -648 -10 -12 -13 -66 -13
-242 0 -211 -1 -226 -18 -232 -29 -8 -42 -49 -42 -125 0 -56 3 -70 15 -70 12
0 15 14 15 70 0 57 4 74 20 90 20 20 33 20 1305 20 1401 0 1321 3 1360 -56 23
-36 22 -90 -4 -124 -17 -24 -18 -30 -6 -40 12 -10 18 -5 35 22 27 44 27 120 0
163 -17 28 -72 65 -95 65 -4 0 -26 21 -49 47 -22 26 -66 63 -96 82 -31 20
-295 144 -588 276 -292 132 -532 245 -532 250 0 6 19 81 42 167 l43 158 60 0
61 0 62 163 c104 273 247 717 307 957 9 36 21 82 26 103 l10 37 1189 0 1190 0
0 -1255 0 -1255 1910 0 1910 0 0 2718 0 2718 -41 39 c-64 62 -285 318 -385
445 -392 501 -759 1136 -1071 1855 -74 170 -225 548 -269 673 l-29 82 -315 0
-316 0 -17 29 c-31 53 -111 122 -177 154 l-65 32 -487 3 -488 3 -5 22 c-8 32
-145 708 -145 713 0 2 645 5 1433 6 l1432 3 38 29 c44 33 88 95 105 145 7 19
149 1027 318 2240 217 1567 303 2219 299 2251 -8 61 -49 143 -88 176 -18 15
-52 36 -77 47 -55 25 431 23 -4040 17z m3660 -167 c47 -9 106 -71 114 -119 4
-25 -82 -671 -242 -1824 l-248 -1785 -3534 -2 -3535 -3 -185 226 c-102 124
-191 233 -197 243 -10 14 26 294 197 1531 115 833 214 1538 220 1565 13 64 60
116 126 140 27 10 53 22 59 27 11 9 7177 11 7225 1z m-4566 -4890 c16 -79 27
-145 25 -147 -3 -3 -1912 263 -2059 287 -14 2 432 4 990 3 l1015 -1 29 -142z
m-3430 -558 l317 -260 -322 -3 c-177 -1 -323 -1 -325 0 -3 4 -34 475 -34 523
l0 36 23 -18 c13 -10 166 -135 341 -278z"/>
<path d="M10085 11628 c3 -24 75 -972 160 -2108 85 -1136 158 -2084 161 -2107
3 -24 8 -43 12 -43 33 1 32 9 -128 2129 -88 1162 -160 2126 -160 2142 0 24 -4
29 -25 29 -23 0 -24 -3 -20 -42z"/>
<path d="M18555 10193 c4 -10 27 -71 51 -136 285 -762 647 -1482 1021 -2030
169 -247 458 -611 577 -727 l46 -44 0 281 0 282 -156 153 c-414 406 -730 863
-1022 1478 -78 164 -216 500 -273 663 l-33 97 -109 0 c-100 0 -109 -1 -102
-17z"/>
<path d="M18885 10143 c39 -114 130 -341 193 -484 205 -463 451 -877 727
-1224 121 -152 350 -404 407 -447 l35 -27 7 67 c3 37 6 367 6 733 l0 666 -107
104 c-185 180 -413 437 -552 622 l-43 57 -349 0 -348 0 24 -67z"/>
<path d="M19682 10193 c8 -10 61 -74 118 -143 135 -165 338 -387 406 -445 l54
-47 0 176 0 176 280 0 280 0 0 150 0 150 -577 0 c-548 0 -575 -1 -561 -17z"/>
<path d="M7637 8158 c-15 -12 -2 -35 135 -230 145 -207 184 -248 182 -193 0
16 -288 435 -298 435 -1 0 -10 -6 -19 -12z"/>
<path d="M7632 7778 c-7 -10 32 -72 142 -226 83 -118 155 -214 161 -214 5 0
13 6 18 13 7 11 -32 73 -139 226 -82 117 -154 212 -160 213 -6 0 -16 -6 -22
-12z"/>
<path d="M25095 7168 c-258 -133 -642 -255 -982 -313 -276 -46 -434 -58 -773
-59 -399 -1 -656 21 -1095 95 -156 27 -550 119 -576 135 -5 3 -9 -148 -9 -364
l0 -368 118 -37 c303 -96 638 -143 947 -134 822 24 1581 318 2186 845 120 105
256 231 249 231 -3 0 -32 -14 -65 -31z"/>
</g>
</svg>
