<?xml version="1.0" standalone="no"?>
<!DOCTYPE svg PUBLIC "-//W3C//DTD SVG 20010904//EN"
 "http://www.w3.org/TR/2001/REC-SVG-20010904/DTD/svg10.dtd">
<svg version="1.0" xmlns="http://www.w3.org/2000/svg"
 width="694.000000pt" height="518.000000pt" viewBox="0 0 694.000000 518.000000"
 preserveAspectRatio="xMidYMid meet">
<metadata>
Created by potrace 1.16, written by Peter Selinger 2001-2019
</metadata>
<g transform="translate(0.000000,518.000000) scale(0.100000,-0.100000)"
fill="#000000" stroke="none">
<path d="M1095 4491 c-17 -10 -40 -31 -50 -47 -20 -29 -20 -60 -20 -2046 l0
-2017 21 -27 c11 -15 33 -37 48 -48 27 -21 36 -21 918 -24 l891 -3 19 -24 c29
-37 96 -80 157 -100 69 -23 168 -17 233 15 140 66 238 235 238 408 0 73 11 74
35 2 22 -66 64 -99 136 -107 42 -4 61 -13 87 -37 l33 -31 252 -5 c175 -3 259
-9 274 -17 14 -9 65 -13 146 -13 91 0 126 -3 130 -12 3 -7 13 -31 22 -53 11
-26 12 -36 4 -28 -18 18 -36 16 -43 -5 -3 -9 -9 -23 -12 -29 -3 -8 2 -13 13
-13 25 0 -32 -37 -70 -46 -36 -7 -46 -32 -22 -50 14 -10 55 -14 148 -14 l130
0 -6 72 c-3 39 -10 74 -15 77 -5 3 -18 31 -30 62 l-21 57 24 22 c14 13 27 31
31 42 3 12 15 18 33 18 24 0 30 -6 40 -42 34 -116 134 -229 236 -267 126 -47
251 -17 350 83 90 90 135 199 135 327 l0 67 -67 -25 c-66 -24 -188 -53 -221
-53 -11 0 -7 6 13 19 25 15 86 79 220 229 7 8 34 16 61 18 63 6 74 10 74 28 0
11 -14 16 -47 18 -48 3 -48 3 -48 38 0 34 1 35 43 38 34 3 42 6 38 19 -3 8 -9
26 -12 39 -7 29 -25 30 -131 8 -79 -16 -162 -45 -200 -70 l-23 -14 37 -51 37
-52 -45 -39 c-146 -128 -329 -213 -526 -243 -33 -5 -43 -4 -43 7 0 9 25 20 72
31 80 20 217 81 275 123 45 33 143 125 143 135 0 3 -22 35 -50 69 -27 34 -50
67 -50 71 0 18 86 102 142 141 69 46 134 75 206 92 l53 12 -40 46 c-45 51 -48
62 -26 85 9 8 15 23 13 32 -3 13 -20 17 -96 19 l-92 3 0 28 c0 15 9 36 20 46
16 14 20 31 20 76 0 87 -6 89 -220 88 l-175 0 -125 -170 c-165 -226 -300 -428
-300 -451 0 -19 63 -193 148 -411 l50 -128 -36 -15 c-88 -37 -77 -46 -200 163
-61 103 -115 194 -119 201 -5 8 -31 -28 -76 -108 -37 -65 -72 -122 -78 -125
-5 -4 -9 9 -9 29 0 19 -4 36 -9 38 -13 4 -51 178 -40 178 5 0 9 16 9 35 0 41
-6 42 -112 21 l-68 -13 -20 54 c-52 140 -113 388 -122 501 -3 30 -13 13 -88
-137 l-85 -171 -42 0 c-24 0 -43 2 -43 5 0 2 13 11 29 20 24 12 37 35 75 133
25 65 46 121 46 125 0 3 -7 4 -15 1 -8 -4 -15 -2 -15 3 0 16 122 267 133 274
5 4 10 34 11 67 1 46 -3 65 -18 81 -19 21 -19 22 0 56 16 31 17 40 5 82 l-12
48 38 32 c46 39 99 53 195 53 54 0 84 -5 113 -20 47 -24 45 -24 45 -5 0 8 -12
21 -27 29 -27 15 -25 15 45 16 57 0 74 3 79 16 13 34 -17 43 -154 46 -73 1
-133 4 -133 6 0 1 12 19 28 38 25 31 32 34 79 34 42 0 55 4 67 22 12 16 16 18
16 7 0 -25 34 -49 69 -49 39 0 113 65 163 143 l33 52 6 -150 c4 -83 7 -160 8
-172 1 -31 21 -29 21 2 0 16 6 25 16 25 12 0 15 -7 12 -30 -4 -23 -1 -30 13
-30 10 0 19 10 23 25 6 22 12 25 51 25 43 0 45 -1 45 -30 0 -28 3 -30 34 -30
28 0 35 4 38 22 2 13 10 24 19 26 12 2 15 -4 11 -28 l-4 -30 61 0 61 0 0 73
c1 98 14 157 38 176 69 53 125 305 78 346 -11 10 -23 47 -47 146 -11 43 -10
51 15 100 25 52 36 139 17 139 -12 0 -32 -26 -25 -33 6 -5 -137 -117 -150
-117 -4 0 15 26 43 57 28 31 51 61 51 65 0 5 -7 19 -15 32 -15 23 -14 25 25
59 36 30 40 38 31 55 -6 11 -34 32 -63 46 -42 21 -66 26 -127 26 -95 0 -135
-19 -176 -81 -16 -25 -39 -50 -50 -55 -25 -11 -22 -28 5 -32 16 -3 20 -11 20
-45 0 -23 9 -71 20 -105 12 -38 20 -92 20 -132 l0 -67 -31 -7 c-17 -3 -42 -6
-54 -6 -14 0 -40 -18 -68 -49 l-45 -48 -7 87 c-4 48 -11 93 -16 101 -6 9 -7
-4 -4 -36 3 -27 10 -81 14 -120 7 -64 6 -72 -13 -90 -12 -11 -32 -41 -46 -67
-37 -70 -51 -63 -29 15 5 20 16 37 23 37 29 0 37 25 25 80 -10 49 -12 51 -37
45 -42 -10 -49 -22 -54 -83 -2 -31 -14 -78 -26 -104 -13 -25 -25 -62 -29 -80
l-5 -34 -54 4 c-52 4 -54 3 -71 -28 -44 -79 -104 -149 -134 -155 -16 -4 -60
-31 -97 -61 -37 -29 -73 -54 -79 -54 -7 0 -33 -16 -59 -35 -25 -19 -40 -35
-33 -35 9 0 10 -3 3 -10 -14 -14 -156 -101 -159 -98 -3 4 -35 100 -35 105 0 2
9 3 20 3 15 0 22 9 27 31 3 19 14 34 25 36 26 7 23 55 -6 90 -26 31 -37 69
-40 145 -3 60 -15 70 -78 65 l-48 -4 0 1014 c0 1113 4 1043 -60 1097 l-32 26
-1081 0 c-1036 0 -1083 -1 -1112 -19z m2205 -1480 c0 -1077 -1 -1170 -17
-1182 -34 -29 -57 -101 -57 -184 -1 -71 -5 -87 -36 -147 -34 -65 -36 -68 -72
-68 -53 0 -85 -18 -103 -57 -23 -47 -13 -95 26 -127 32 -27 85 -34 118 -16 14
7 23 5 36 -10 10 -11 16 -21 14 -23 -2 -2 -32 -9 -66 -15 -78 -16 -137 -49
-199 -112 -51 -52 -104 -139 -104 -171 0 -10 8 -22 17 -28 17 -9 16 -13 -6
-58 -13 -26 -29 -75 -35 -108 l-13 -60 -851 -3 -852 -2 0 1770 0 1770 1100 0
1100 0 0 -1169z m194 -923 c13 -33 12 -34 -37 -86 -40 -44 -48 -58 -45 -82 4
-26 -6 -40 -28 -40 -2 0 -4 46 -4 103 0 101 0 103 28 119 43 28 70 23 86 -14z
m-38 -263 c62 -40 84 -168 43 -250 -28 -57 -92 -98 -139 -91 -64 10 -103 54
-122 139 -17 77 37 188 106 218 27 11 82 4 112 -16z m204 -261 c0 -4 -19 -58
-41 -120 l-42 -114 -68 0 c-44 0 -69 4 -69 11 0 25 95 143 148 185 55 42 72
51 72 38z m-406 -30 c9 -24 6 -73 -8 -134 l-12 -55 -47 -3 c-36 -2 -47 0 -47
11 0 16 44 115 73 165 21 36 32 40 41 16z m210 -533 c17 -19 16 -27 -36 -191
-54 -168 -55 -170 -73 -150 -10 11 -25 18 -33 15 -9 -3 -12 0 -10 7 3 7 27 86
53 176 52 171 61 185 99 143z"/>
<path d="M1160 3950 l0 -160 1040 0 1040 0 0 160 0 160 -1040 0 -1040 0 0
-160z"/>
<path d="M1505 3724 c32 -24 62 -27 154 -16 47 5 88 6 91 2 9 -14 63 -280 58
-285 -2 -2 -148 -28 -323 -57 l-320 -54 -3 -81 -3 -80 43 7 c24 5 45 6 47 4 3
-2 -17 -219 -42 -482 -47 -467 -48 -484 -47 -819 0 -303 2 -343 15 -343 9 0
24 13 33 30 l17 30 231 0 c202 0 233 2 238 16 3 9 6 49 6 89 l0 74 217 70
c120 39 218 69 219 68 1 -1 20 -85 41 -187 l39 -185 212 -3 c123 -1 212 1 212
7 0 5 -81 257 -181 561 -99 304 -179 553 -177 555 2 2 155 41 341 88 l338 85
37 -56 37 -55 3 126 3 126 -147 203 c-81 112 -158 217 -171 234 l-24 32 93 16
c51 10 100 19 109 22 11 3 42 -26 94 -85 78 -89 79 -90 129 -93 l51 -3 5 -62
c4 -51 10 -68 33 -90 l27 -28 0 65 c0 61 -2 68 -40 112 -38 44 -42 46 -69 35
-24 -9 -34 -7 -56 7 -25 17 -27 22 -22 66 5 39 2 51 -14 66 -10 9 -19 20 -19
24 0 4 50 15 110 26 l111 18 -3 105 -3 106 -95 2 -95 3 53 -49 52 -48 -227
-37 c-275 -45 -263 -42 -263 -70 0 -12 -13 -34 -28 -49 l-28 -27 -27 28 c-30
31 -34 58 -13 88 14 19 11 26 -37 92 l-52 72 -52 0 c-29 0 -53 -3 -53 -7 0 -3
27 -49 61 -100 33 -52 59 -96 57 -98 -1 -1 -109 -20 -239 -42 l-236 -39 -22
69 c-13 38 -21 70 -19 73 2 2 51 10 108 19 58 9 109 20 114 25 7 7 2 26 -12
55 -21 43 -24 45 -63 45 -43 0 -45 -3 -24 -51 5 -14 -4 -18 -64 -24 -39 -4
-74 -8 -78 -9 -3 0 -13 18 -20 42 l-15 42 -216 0 c-196 -1 -215 -2 -197 -16z
m1040 -235 c4 -6 5 -12 3 -14 -2 -2 -132 -25 -288 -50 -156 -25 -286 -48 -289
-50 -2 -3 73 -280 169 -616 139 -493 170 -613 159 -620 -15 -9 -89 -23 -93
-17 -6 7 -306 1234 -306 1251 0 10 7 20 15 23 15 6 576 101 607 103 9 0 20 -4
23 -10z m184 -313 c84 -129 153 -238 153 -243 1 -10 -635 -163 -643 -154 -8 7
-166 486 -171 516 -3 18 16 23 252 66 140 26 255 47 256 48 0 1 69 -104 153
-233z m-758 -489 c67 -318 119 -580 116 -583 -6 -6 -362 -114 -376 -114 -6 0
-11 13 -11 28 0 49 -10 52 -202 52 l-178 0 0 43 c0 82 50 1070 54 1074 7 8
471 89 473 83 1 -3 57 -265 124 -583z m442 -764 c62 -72 87 -108 87 -127 0
-30 4 -29 -75 -12 l-60 12 -64 -54 c-86 -72 -89 -67 -67 147 23 220 21 214 60
170 17 -20 70 -81 119 -136z m-848 37 c24 -17 46 -34 49 -39 3 -5 -19 -25 -49
-45 l-55 -36 0 30 0 30 -80 0 -80 0 0 -115 c0 -108 -1 -115 -20 -115 -19 0
-20 7 -20 119 0 147 3 151 122 151 77 0 78 0 78 25 0 14 3 25 6 25 3 0 25 -14
49 -30z"/>
<path d="M3180 2622 c0 -134 1 -138 28 -177 l27 -40 3 137 c2 134 2 139 -24
178 -15 22 -28 40 -30 40 -2 0 -4 -62 -4 -138z"/>
</g>
</svg>
