 <svg version="1.0" xmlns="http://www.w3.org/2000/svg" width="700.000000pt" height="1063.000000pt" viewBox="0 0 700.000000 1063.000000" preserveAspectRatio="xMidYMid meet">
<metadata>
Created by potrace 1.12, written by Peter Selinger 2001-2015
</metadata>
<g transform="translate(0.000000,1063.000000) scale(0.100000,-0.100000)" fill="#000000" stroke="none">
<path d="M2660 9685 c13 -14 29 -25 35 -25 6 0 31 -20 55 -45 24 -25 49 -45
55 -45 6 0 31 -20 55 -45 24 -25 48 -45 52 -45 5 0 28 -20 52 -45 25 -25 49
-45 53 -45 5 0 29 -20 53 -45 24 -25 49 -45 55 -45 6 0 31 -20 55 -45 24 -25
49 -45 55 -45 6 0 22 -11 35 -25 l23 -25 -71 0 c-39 0 -74 -4 -77 -10 -3 -5
-37 -10 -76 -10 -39 0 -69 -4 -69 -10 0 -6 -33 -10 -79 -10 -44 0 -83 -4 -86
-10 -3 -5 -37 -10 -76 -10 -38 0 -69 -4 -69 -9 0 -5 -63 -12 -140 -16 -77 -4
-143 -11 -146 -16 -3 -5 -34 -9 -69 -9 -35 0 -67 -4 -70 -10 -3 -5 -42 -10
-86 -10 -46 0 -79 -4 -79 -10 0 -6 -30 -10 -69 -10 -39 0 -72 -4 -75 -9 -3 -5
-67 -12 -141 -16 -74 -4 -138 -11 -141 -16 -3 -5 -36 -9 -74 -9 -38 0 -72 -4
-75 -10 -3 -5 -35 -10 -70 -10 -35 0 -67 -4 -70 -10 -3 -5 -19 -10 -34 -10
-32 0 -91 -27 -91 -41 0 -5 -6 -9 -14 -9 -13 0 -26 -14 -63 -66 -21 -27 -33
-56 -33 -73 0 -11 -5 -23 -10 -26 -13 -8 -13 -362 0 -370 6 -4 10 -88 10 -221
0 -136 4 -214 10 -214 6 0 10 -82 10 -225 0 -124 4 -225 9 -225 5 0 12 -191
16 -425 4 -234 11 -428 16 -431 5 -3 9 -102 9 -220 0 -136 4 -214 10 -214 6 0
10 -78 10 -214 0 -133 4 -217 10 -221 6 -4 10 -86 10 -214 0 -114 4 -211 9
-216 5 -6 12 -184 15 -396 l7 -387 -53 -6 c-29 -3 -89 -8 -133 -11 -44 -4 -89
-10 -100 -15 -11 -5 -49 -11 -85 -14 -36 -3 -103 -8 -150 -12 -47 -3 -90 -10
-96 -15 -6 -5 -19 -7 -27 -3 -27 10 -40 -6 -20 -25 22 -20 36 -42 63 -98 11
-23 25 -45 31 -48 5 -4 14 -17 20 -28 13 -32 32 -60 51 -78 10 -9 18 -24 18
-33 0 -9 5 -16 11 -16 5 0 19 -20 29 -44 11 -24 27 -49 35 -56 8 -7 15 -16 15
-20 0 -13 53 -90 62 -90 4 0 8 -8 8 -18 0 -9 9 -23 19 -29 11 -7 22 -25 26
-41 3 -17 15 -38 26 -48 10 -9 19 -22 19 -29 0 -7 9 -20 20 -30 11 -10 20 -24
20 -32 0 -7 7 -16 15 -19 8 -4 15 -12 15 -18 0 -7 8 -21 18 -32 10 -10 21 -26
25 -34 42 -85 45 -86 144 -78 48 3 125 7 170 7 45 1 85 6 88 11 3 6 48 10 100
10 52 0 97 4 100 10 3 6 48 10 100 10 52 0 97 4 100 10 3 6 48 10 99 10 51 0
96 3 100 7 4 4 47 6 95 4 56 -2 91 1 96 8 4 7 44 11 100 11 52 0 97 4 100 10
3 6 46 10 95 10 49 0 92 5 95 10 3 6 50 10 105 10 55 0 102 4 105 10 7 11 175
14 175 3 0 -6 -43 -55 -167 -191 -35 -38 -63 -73 -63 -78 0 -5 -25 -34 -55
-64 -30 -30 -55 -60 -55 -66 0 -6 -19 -29 -43 -50 -23 -22 -56 -57 -72 -79
-16 -22 -49 -58 -72 -79 -24 -22 -43 -45 -43 -51 0 -6 -29 -40 -65 -75 -36
-35 -65 -69 -65 -75 0 -6 -25 -35 -55 -65 -30 -30 -55 -59 -55 -65 0 -6 -27
-37 -60 -70 -33 -33 -60 -64 -60 -70 0 -5 -25 -34 -55 -64 -30 -29 -55 -57
-55 -62 0 -4 -27 -35 -60 -67 -33 -33 -60 -64 -60 -69 0 -5 -25 -33 -55 -63
-30 -30 -55 -59 -55 -65 0 -6 -29 -40 -65 -75 -36 -35 -65 -69 -65 -75 0 -6
-25 -35 -55 -65 -30 -30 -55 -59 -55 -65 0 -5 -27 -37 -60 -70 -33 -32 -60
-63 -60 -67 0 -4 -25 -32 -55 -62 -30 -29 -55 -58 -55 -63 0 -5 -27 -35 -60
-68 -33 -33 -60 -64 -60 -70 0 -6 -25 -35 -55 -65 -30 -30 -55 -59 -55 -65 0
-6 -29 -40 -65 -75 -36 -35 -65 -69 -65 -74 0 -9 -67 -84 -176 -198 -29 -31
-54 -60 -54 -65 0 -4 -24 -32 -54 -63 -50 -51 -79 -100 -59 -100 5 0 22 14 38
30 16 17 34 30 40 30 6 0 22 11 35 25 13 14 29 25 35 25 6 0 22 11 35 25 13
14 28 25 35 25 6 0 17 9 25 20 8 11 19 20 25 20 7 0 22 11 35 25 13 14 29 25
35 25 6 0 24 14 40 30 16 17 34 30 40 30 6 0 22 11 35 25 13 14 28 25 33 25 9
0 42 26 110 86 15 13 31 24 35 24 5 0 19 11 32 25 13 14 29 25 35 25 6 0 22
12 36 26 13 14 33 30 44 35 30 13 56 31 90 61 16 16 33 28 37 28 4 0 18 11 32
25 14 14 29 25 34 25 5 0 19 11 32 25 13 14 29 25 35 25 6 0 24 13 40 30 16
16 34 30 40 30 6 0 22 11 35 25 13 14 27 25 32 25 4 0 22 13 40 30 17 16 35
30 39 30 4 0 19 11 33 25 14 14 29 25 34 25 5 0 17 9 27 20 10 11 23 20 30 20
6 0 22 11 35 25 13 14 29 25 35 25 6 0 22 11 35 25 13 14 28 25 33 25 5 0 22
14 37 30 15 17 32 30 37 30 4 0 20 11 35 25 15 14 31 25 36 25 5 0 19 11 32
25 13 14 29 25 35 25 6 0 24 13 40 30 16 16 34 30 40 30 6 0 22 11 35 25 13
14 28 25 35 25 6 0 17 9 25 20 8 11 19 20 25 20 7 0 22 11 35 25 13 14 29 25
35 25 6 0 24 14 40 30 16 17 34 30 40 30 6 0 22 11 35 25 13 14 29 25 35 25 6
0 22 11 35 25 13 14 28 25 33 25 5 0 22 13 37 30 15 17 32 30 37 30 5 0 20 11
33 25 13 14 29 25 35 25 6 0 22 12 36 26 13 14 33 30 44 35 38 17 91 56 162
119 12 11 26 20 31 20 5 0 19 11 32 25 13 14 29 25 35 25 6 0 24 13 40 30 16
16 34 30 40 30 6 0 22 11 35 25 13 14 29 25 37 25 7 0 13 3 13 8 0 4 20 21 45
37 24 17 45 33 45 38 0 4 6 7 13 7 8 0 24 11 37 25 13 14 29 25 35 25 6 0 24
14 40 30 16 17 34 30 40 30 6 0 22 11 35 25 13 14 27 25 32 25 5 0 19 10 32
23 12 12 39 33 59 47 20 14 37 28 37 33 0 4 6 7 13 7 8 0 24 11 37 25 13 14
29 25 35 25 6 0 22 12 36 26 13 14 33 30 44 35 33 15 58 33 86 62 15 15 31 27
36 27 4 0 20 11 35 25 15 14 31 25 36 25 5 0 19 11 32 25 13 14 29 25 35 25 6
0 24 14 40 30 16 17 34 30 40 30 6 0 22 11 35 25 13 14 28 25 33 25 5 0 22 14
37 30 15 17 32 30 37 30 5 0 20 11 33 25 13 14 29 25 35 25 7 0 20 9 30 20 10
11 23 20 30 20 6 0 22 11 35 25 13 14 29 25 35 25 6 0 22 11 35 25 13 14 28
25 33 25 5 0 22 13 37 30 15 17 32 30 37 30 5 0 20 11 33 25 13 14 29 25 35
25 6 0 24 14 40 30 16 17 34 30 40 30 6 0 22 11 35 25 13 14 29 25 35 25 6 0
22 11 35 25 13 14 28 25 35 25 6 0 17 9 25 20 8 11 19 20 25 20 7 0 22 11 35
25 13 14 29 25 35 25 6 0 24 14 40 30 16 17 34 30 40 30 6 0 22 11 35 25 13
14 29 25 37 25 7 0 13 3 13 8 0 4 17 18 37 32 20 14 47 35 59 48 13 12 27 22
32 22 5 0 19 11 32 25 13 14 29 25 35 25 6 0 22 12 36 26 13 14 33 30 44 35
30 13 55 31 88 62 17 15 34 27 38 27 4 0 19 11 33 25 14 14 29 25 34 25 5 0
19 11 32 25 13 14 29 25 35 25 6 0 24 13 40 30 16 16 34 30 40 30 6 0 22 11
35 25 13 14 27 25 32 25 5 0 19 10 32 23 12 12 39 33 59 47 20 14 37 28 37 33
0 4 6 7 13 7 8 0 22 9 32 20 10 11 23 20 30 20 7 0 20 10 31 21 10 12 28 25
39 30 12 5 -25 6 -90 3 -60 -4 -114 -10 -119 -15 -6 -5 -40 -9 -77 -9 -37 0
-71 -4 -74 -10 -3 -5 -37 -10 -76 -10 -39 0 -69 -4 -69 -10 0 -6 -30 -10 -69
-10 -39 0 -72 -4 -75 -9 -3 -5 -71 -12 -151 -16 -80 -4 -148 -11 -151 -16 -3
-5 -36 -9 -75 -9 -39 0 -69 -4 -69 -10 0 -6 -30 -10 -69 -10 -39 0 -73 -4 -76
-10 -3 -6 -37 -10 -74 -10 -37 0 -71 -4 -77 -9 -5 -5 -73 -13 -151 -17 -79 -4
-143 -11 -143 -15 0 -5 -31 -9 -69 -9 -39 0 -73 -4 -76 -10 -3 -5 -37 -10 -76
-10 -39 0 -69 -4 -69 -10 0 -6 -28 -10 -65 -10 -36 0 -74 -5 -84 -12 -10 -6
-26 -8 -35 -5 -14 5 -16 25 -16 136 0 76 4 132 10 136 5 3 10 36 10 73 l0 67
468 468 c257 257 472 467 477 467 6 0 233 223 505 495 272 272 499 495 505
495 13 0 555 542 555 555 0 6 -15 16 -32 24 -18 7 -65 28 -104 47 -39 19 -76
34 -82 34 -7 0 -12 3 -12 8 0 8 -48 32 -65 32 -6 0 -51 20 -99 45 -49 25 -97
45 -107 45 -11 0 -19 5 -19 10 0 6 -5 10 -12 10 -16 0 -162 72 -166 82 -2 4
-13 8 -24 8 -20 0 -127 47 -138 60 -8 10 -77 40 -92 40 -19 0 -68 23 -68 33 0
4 -9 7 -20 7 -11 0 -20 3 -20 8 0 10 -75 42 -99 42 -11 0 -21 4 -23 8 -4 10
-150 82 -166 82 -7 0 -12 5 -12 10 0 6 -8 10 -18 10 -10 0 -67 25 -127 55 -59
30 -116 55 -126 55 -11 0 -19 5 -19 10 0 6 -9 10 -20 10 -11 0 -20 5 -20 10 0
6 -6 10 -12 10 -7 0 -35 11 -62 25 -27 14 -58 25 -68 25 -10 0 -18 3 -18 8 0
4 -19 15 -42 25 -24 10 -55 24 -70 30 -16 7 -28 15 -28 19 0 5 -9 8 -20 8 -11
0 -20 5 -20 10 0 6 -11 10 -24 10 -14 0 -27 4 -31 9 -3 5 -19 12 -35 16 -17 4
-30 11 -30 16 0 5 -9 9 -20 9 -11 0 -20 3 -20 8 0 8 -48 32 -66 32 -18 0 -134
61 -134 71 0 4 5 11 10 14 6 3 10 28 10 55 0 27 -4 52 -10 55 -5 3 -10 22 -10
42 0 51 -26 101 -83 160 -45 46 -56 53 -104 59 -29 3 -56 10 -59 15 -7 12 -81
12 -88 0 -3 -5 -67 -12 -141 -16 -74 -4 -138 -11 -141 -16 -3 -5 -36 -9 -74
-9 -38 0 -71 -4 -74 -9 -4 -5 -27 2 -54 15 -26 13 -53 24 -59 24 -7 0 -13 5
-13 10 0 6 -9 10 -20 10 -11 0 -20 3 -20 8 0 8 -48 32 -66 32 -6 0 -60 25
-119 55 -60 30 -113 55 -118 55 -15 0 -121 53 -125 62 -2 4 -12 8 -22 8 -10 0
-22 5 -25 10 -4 6 -12 10 -18 8 -16 -2 -97 35 -97 44 0 5 -9 8 -20 8 -11 0
-20 4 -20 9 0 5 -13 12 -30 16 -16 4 -32 11 -35 16 -4 5 -17 9 -31 9 -13 0
-24 5 -24 10 0 6 -9 10 -20 10 -11 0 -20 3 -20 8 0 4 -15 13 -32 21 -18 7 -46
20 -62 27 -43 21 -52 17 -26 -11z m1607 -650 c-7 -67 -13 -78 -35 -65 -9 5
-44 21 -77 37 -87 40 -105 63 -48 63 13 0 23 5 23 10 0 6 30 10 71 10 l72 0
-6 -55z m-732 -65 c16 -16 34 -30 40 -30 6 0 31 -20 55 -45 24 -25 49 -45 55
-45 6 0 31 -20 55 -45 24 -25 49 -45 56 -45 6 0 24 -15 40 -33 16 -18 47 -46
69 -62 21 -16 51 -39 65 -51 25 -22 106 -91 176 -149 19 -16 48 -37 62 -46
l27 -16 3 -164 c1 -98 -2 -172 -8 -184 -5 -11 -12 -119 -15 -240 -3 -121 -7
-323 -10 -449 -3 -127 -10 -235 -14 -240 -5 -6 -12 -219 -16 -474 -4 -254 -11
-465 -16 -468 -5 -3 -9 -111 -9 -240 0 -149 -4 -234 -10 -234 -6 0 -10 -85
-10 -235 0 -144 -4 -235 -10 -235 -5 0 -11 -92 -14 -227 -3 -126 -9 -309 -13
-408 l-8 -180 -1287 -3 -1288 -2 0 54 c0 30 -4 58 -10 61 -6 4 -10 90 -10 225
0 135 -4 221 -10 225 -6 4 -10 87 -10 215 0 128 -4 211 -10 215 -6 4 -10 88
-10 220 0 118 -4 216 -9 219 -5 3 -12 197 -16 431 -4 234 -11 428 -16 431 -5
3 -9 99 -9 214 0 128 -4 211 -10 215 -6 4 -10 88 -10 220 0 132 -4 216 -10
220 -6 4 -10 85 -10 211 0 113 -4 213 -9 222 -4 9 -11 177 -15 373 l-7 357
146 7 c80 4 148 11 151 16 3 5 36 9 74 9 38 0 72 5 75 10 3 6 37 10 76 10 39
0 69 4 69 10 0 6 30 10 69 10 39 0 72 4 75 9 3 5 71 12 151 16 80 4 148 11
151 16 3 5 36 9 75 9 39 0 69 4 69 10 0 6 30 10 69 10 39 0 73 5 76 10 3 6 37
10 75 10 38 0 71 4 74 9 3 5 71 12 151 16 80 4 148 11 151 16 3 5 34 9 69 9
35 0 67 5 70 10 3 6 37 10 75 10 38 0 72 5 75 10 3 6 30 10 59 10 45 0 56 -4
81 -30z m995 -837 c14 -9 38 -32 54 -50 16 -18 34 -33 42 -33 7 0 16 -5 19
-11 9 -13 -18 -70 -45 -94 -11 -10 -20 -22 -20 -27 0 -5 -10 -19 -22 -32 -13
-12 -34 -39 -48 -59 -14 -20 -28 -37 -32 -37 -12 0 -9 158 2 165 6 3 10 48 10
101 0 52 3 94 8 94 4 0 19 -8 32 -17z"></path>
<path d="M2460 8081 c0 -41 4 -71 10 -71 6 0 10 -26 10 -59 0 -33 4 -62 9 -65
4 -3 11 -38 14 -77 3 -40 11 -77 17 -83 5 -5 10 -20 10 -33 0 -13 5 -23 10
-23 6 0 10 -11 10 -24 0 -14 5 -28 10 -31 6 -3 10 -16 10 -29 0 -12 5 -27 12
-34 8 -8 8 -15 -2 -27 -10 -12 -10 -21 -2 -38 6 -12 14 -71 17 -132 l7 -110
-26 24 c-17 16 -26 20 -26 11 0 -8 -10 -24 -22 -37 -20 -22 -21 -24 -4 -42 10
-11 31 -23 47 -26 32 -7 36 -22 14 -51 -8 -10 -15 -29 -15 -42 0 -27 -18 -25
-34 4 -6 10 -14 21 -17 24 -4 3 -9 16 -12 30 -2 14 -5 2 -6 -27 0 -30 -6 -53
-13 -55 -13 -5 -131 51 -136 65 -2 4 -12 7 -21 7 -10 0 -21 3 -25 7 -4 4 -13
8 -19 8 -19 1 -97 39 -97 47 0 5 -9 8 -20 8 -11 0 -20 5 -20 10 0 6 -7 10 -15
10 -8 0 -15 -3 -15 -6 0 -9 28 -34 38 -34 4 0 19 -11 32 -25 13 -14 29 -25 35
-25 15 0 47 -37 65 -75 17 -35 35 -55 48 -55 4 0 19 -11 32 -25 13 -14 34 -25
47 -25 20 0 23 -5 23 -36 0 -36 0 -36 -36 -30 -19 4 -51 16 -70 27 -42 23 -54
24 -54 4 0 -9 -7 -18 -15 -21 -16 -6 -75 16 -75 28 0 5 -9 8 -20 8 -11 0 -20
3 -20 8 0 4 -15 13 -32 21 -18 7 -46 20 -62 27 -16 8 -37 14 -47 14 -9 0 -19
4 -21 8 -4 10 -111 62 -126 62 -7 0 -12 5 -12 10 0 6 -9 10 -19 10 -11 0 -21
4 -23 8 -3 9 -113 62 -128 62 -6 0 -10 3 -10 8 0 7 -47 32 -62 32 -16 0 -8
-19 11 -25 10 -3 33 -19 50 -35 17 -17 35 -30 39 -30 5 0 19 -11 32 -25 13
-14 28 -25 34 -25 5 0 22 -12 37 -26 29 -28 62 -49 92 -60 9 -3 17 -10 17 -15
0 -5 9 -9 20 -9 11 0 20 -3 20 -8 0 -4 10 -12 23 -17 24 -11 35 -51 18 -68
-14 -14 -14 -74 -1 -82 6 -3 10 -14 10 -24 0 -9 6 -29 13 -44 10 -22 19 -27
49 -27 37 0 37 1 31 33 -3 17 -10 34 -15 35 -12 5 -10 66 4 80 13 13 70 16 82
5 4 -5 13 -8 19 -8 7 0 13 -20 15 -50 2 -27 7 -54 13 -60 16 -16 10 -35 -11
-35 -11 0 -20 -4 -20 -10 0 -5 -7 -10 -15 -10 -8 0 -15 -7 -15 -15 0 -11 11
-15 38 -15 36 0 62 -14 62 -32 0 -4 -11 -8 -25 -8 -24 0 -25 -2 -25 -70 0 -70
-7 -83 -30 -55 -17 20 -42 19 -83 -4 -18 -10 -49 -22 -68 -26 -44 -9 -89 -28
-89 -37 0 -5 -9 -8 -20 -8 -11 0 -29 -5 -40 -12 -24 -15 -37 -4 -20 17 20 24
5 29 -31 11 -18 -9 -39 -16 -48 -16 -25 -1 -58 -32 -65 -62 -3 -16 -5 -28 -2
-28 2 0 30 14 61 30 31 17 67 30 79 30 42 0 62 -45 31 -70 -8 -7 -15 -23 -15
-36 0 -13 -4 -24 -10 -24 -5 0 -10 -8 -10 -18 0 -11 -7 -33 -16 -51 -20 -40
-11 -51 19 -23 13 12 27 22 31 22 8 0 54 34 93 70 12 11 26 20 31 20 12 0 72
64 72 78 0 7 6 12 13 12 8 0 22 9 32 20 30 33 76 52 92 38 11 -9 10 -15 -8
-35 -14 -14 -29 -21 -40 -18 -13 5 -16 1 -12 -13 2 -11 0 -23 -6 -26 -6 -4
-11 -23 -11 -42 0 -26 -4 -34 -18 -34 -9 0 -26 -11 -36 -25 -10 -14 -24 -25
-30 -25 -7 0 -30 -18 -51 -40 -21 -22 -44 -40 -50 -40 -6 0 -22 -11 -35 -25
-13 -14 -29 -25 -35 -25 -6 0 -26 -16 -45 -35 -19 -19 -38 -35 -43 -35 -5 0
-22 -13 -37 -30 -15 -16 -32 -30 -38 -30 -13 0 -73 -56 -66 -63 7 -7 64 15 64
25 0 4 9 8 19 8 11 0 37 10 60 22 40 21 66 19 43 -4 -7 -7 -12 -21 -12 -32 0
-12 -7 -30 -15 -40 -29 -38 -6 -52 25 -16 22 25 87 70 102 70 7 0 8 16 4 45
-7 43 -6 45 18 45 14 0 26 5 26 10 0 6 9 10 20 10 11 0 20 5 20 10 0 6 16 10
35 10 19 0 35 -4 35 -10 0 -5 15 -10 33 -10 18 0 37 -4 42 -9 6 -5 24 -11 40
-13 18 -2 29 -8 27 -16 -2 -9 4 -11 18 -7 11 4 20 2 20 -4 0 -6 -4 -11 -10
-11 -5 0 -10 -9 -10 -19 0 -11 5 -23 10 -26 6 -3 10 3 10 14 0 12 5 21 10 21
6 0 10 7 10 15 0 15 40 21 53 8 4 -3 23 -6 41 -6 36 0 66 17 66 37 0 14 84 95
117 114 13 6 32 12 44 12 12 0 28 8 35 18 11 14 16 15 31 4 10 -6 27 -16 38
-21 11 -5 34 -23 50 -41 28 -29 29 -32 12 -41 -12 -7 -16 -17 -11 -31 5 -16 2
-19 -13 -16 -11 2 -18 13 -19 28 -2 44 -4 46 -19 16 -8 -15 -15 -41 -15 -57 0
-19 -5 -29 -15 -29 -8 0 -15 -7 -15 -15 0 -8 -4 -15 -10 -15 -5 0 -10 -4 -10
-10 0 -17 22 -11 41 11 l19 22 8 -23 c6 -15 11 -19 16 -12 4 7 14 12 22 12 11
0 14 -9 12 -37 -3 -38 -3 -38 -52 -41 -28 -2 -60 2 -73 9 -18 10 -26 10 -35 1
-7 -7 -20 -12 -30 -12 -13 0 -18 -8 -18 -25 0 -14 -4 -25 -10 -25 -5 0 -10 16
-10 35 0 38 -6 42 -32 21 -25 -19 -24 -78 2 -101 28 -25 50 -73 50 -107 0 -15
5 -28 10 -28 6 0 11 -17 11 -37 1 -24 3 -30 6 -15 7 38 58 127 72 127 8 0 22
-15 32 -34 30 -57 39 -60 39 -14 0 23 5 45 10 48 6 3 10 35 10 70 0 64 9 86
27 62 13 -16 17 -195 5 -210 -5 -7 -12 -52 -15 -102 -2 -49 -3 -78 0 -62 2 15
7 27 11 27 7 0 21 28 41 83 6 16 15 25 21 22 13 -8 13 -62 0 -70 -5 -3 -10
-35 -10 -70 0 -35 -4 -67 -10 -70 -5 -3 -10 -18 -10 -33 0 -25 1 -25 15 -6 8
10 15 28 15 40 0 11 3 24 7 27 7 8 33 -38 33 -59 0 -14 4 -25 28 -71 7 -13 12
-32 12 -42 0 -11 4 -22 9 -26 6 -3 13 -26 17 -50 3 -25 10 -48 15 -51 5 -3 9
-16 9 -30 0 -13 5 -24 10 -24 6 0 10 -9 10 -20 0 -11 5 -20 10 -20 6 0 10 -9
10 -20 0 -22 26 -106 40 -132 6 -10 10 -26 10 -36 0 -10 4 -22 9 -27 5 -6 11
-19 13 -30 2 -11 2 66 0 170 -2 105 -8 194 -13 199 -13 14 -11 116 2 116 6 0
10 12 9 28 -5 76 13 82 24 7 4 -24 11 -47 17 -50 5 -4 9 -17 9 -30 0 -13 5
-27 10 -30 6 -3 10 -17 10 -31 0 -13 4 -24 9 -24 5 0 12 -8 15 -17 3 -10 4 33
2 95 -2 66 -8 118 -15 125 -6 6 -11 21 -11 33 0 13 -4 26 -10 29 -5 3 -10 17
-10 30 0 13 -4 27 -10 30 -9 6 -15 105 -6 105 2 0 17 -7 32 -15 16 -8 35 -15
42 -15 15 0 16 22 1 37 -14 14 -3 33 18 33 14 0 14 3 -2 20 -10 12 -30 26 -44
33 -29 14 -43 67 -18 67 11 0 13 11 9 50 -3 32 0 55 8 65 7 8 13 39 14 68 l1
53 28 -14 c16 -8 32 -24 37 -36 4 -11 22 -34 39 -50 17 -17 31 -35 31 -41 0
-6 16 -26 35 -45 19 -19 35 -39 35 -46 0 -22 28 -38 44 -25 10 8 20 9 33 3 69
-37 250 -122 257 -122 5 0 -1 11 -14 25 -13 14 -28 25 -33 25 -12 0 -127 119
-157 163 -14 20 -28 37 -32 37 -5 0 -8 20 -8 45 0 25 2 45 3 45 15 0 70 -36
80 -51 6 -10 19 -19 27 -19 8 0 24 -11 34 -25 10 -14 24 -25 31 -25 6 0 24
-13 40 -30 16 -16 34 -30 40 -30 6 0 22 -11 35 -25 13 -14 29 -25 35 -25 6 0
24 -13 40 -30 16 -16 34 -30 40 -30 7 0 21 -11 31 -25 10 -14 22 -25 26 -25
15 0 8 27 -12 45 -11 10 -20 22 -20 27 0 5 -11 19 -25 32 -14 13 -25 28 -25
33 0 5 -13 22 -30 38 -16 16 -30 34 -30 40 0 6 -11 22 -25 35 -14 13 -25 29
-25 35 0 6 -11 22 -25 35 -14 13 -25 29 -25 36 0 6 -13 22 -30 35 -16 13 -30
30 -30 37 0 17 -108 122 -126 122 -9 0 -14 6 -11 13 3 8 21 11 59 9 33 -2 58
1 62 7 4 6 34 11 67 11 32 0 59 3 59 8 0 17 -61 30 -165 37 -60 3 -113 9 -116
13 -4 4 -9 33 -11 65 -4 43 -1 57 9 57 18 0 16 7 -7 30 -23 23 -25 38 -6 62
12 17 15 17 45 2 18 -9 36 -26 41 -39 11 -28 26 -39 35 -25 3 5 15 10 25 10
13 0 17 5 14 15 -8 21 -3 19 72 -20 46 -25 70 -33 77 -26 13 13 15 10 -48 41
-60 30 -86 51 -67 58 17 5 15 27 -3 42 -25 21 -17 30 13 14 15 -7 37 -14 49
-14 12 0 25 -4 28 -10 3 -5 14 -10 23 -10 11 0 5 11 -21 38 -36 37 -52 67 -22
42 13 -11 15 -7 15 24 0 32 -3 36 -25 36 -34 0 -32 24 4 61 44 43 81 34 81
-20 0 -24 2 -24 17 9 10 19 21 37 25 38 4 2 8 12 8 21 0 10 11 40 25 67 14 27
25 55 25 62 0 16 19 50 44 80 l19 22 -91 0 -92 0 0 -49 c0 -28 4 -53 10 -56 8
-5 6 -14 -17 -54 -2 -2 -9 2 -18 9 -13 11 -18 9 -34 -9 -24 -27 -31 -27 -31 4
0 31 -12 32 -25 3 -7 -16 -20 -24 -41 -26 -31 -3 -31 -4 -26 -48 2 -24 2 -44
-2 -44 -8 0 -86 76 -86 84 0 3 7 6 15 6 8 0 15 5 15 10 0 6 -7 10 -16 10 -12
0 -15 6 -10 23 3 12 -1 36 -10 52 -17 32 -12 55 11 55 8 0 15 6 15 14 0 22 24
38 38 24 9 -9 12 -3 12 25 l0 37 49 0 c28 0 53 5 56 10 3 6 33 10 66 10 32 0
59 4 59 10 0 18 -40 31 -93 30 -59 0 -117 9 -117 19 0 4 4 11 9 17 5 5 12 19
15 30 6 20 4 21 -37 17 -63 -7 -66 9 -13 65 144 151 206 219 206 228 0 5 32
41 70 79 38 38 70 74 70 79 0 5 7 18 17 28 29 33 4 33 -30 0 -18 -18 -37 -32
-43 -32 -6 0 -25 -16 -44 -35 -19 -19 -38 -35 -43 -35 -12 0 -207 -196 -207
-207 0 -5 -44 -53 -99 -107 -65 -65 -101 -94 -106 -86 -4 6 -2 17 4 23 6 6 11
21 11 33 0 12 6 25 13 28 10 5 10 7 0 12 -7 3 -13 13 -13 21 0 13 -9 15 -45
11 -42 -5 -45 -4 -45 18 0 32 -15 38 -50 21 -25 -13 -31 -13 -41 -1 -14 17
-29 18 -29 3 0 -22 -30 -39 -69 -39 l-41 0 0 65 c0 37 4 65 10 65 6 0 10 -11
10 -25 0 -28 5 -30 43 -12 33 15 35 40 5 99 -13 23 -24 45 -25 47 -2 3 -9 -1
-15 -7 -23 -23 -28 -11 -28 72 0 47 -4 88 -10 91 -5 3 -11 43 -12 88 -2 73 -2
75 -5 22 -2 -33 -8 -64 -14 -69 -12 -13 -12 -173 1 -181 6 -3 10 -29 10 -56 0
-49 0 -49 -27 -43 -16 3 -34 7 -40 10 -10 2 -13 44 -13 162 0 87 -4 162 -9
167 -6 6 -12 39 -14 75 l-3 65 -2 -72 c-1 -39 -6 -75 -12 -78 -5 -3 -10 -35
-10 -70 0 -35 -4 -67 -10 -70 -6 -4 -10 -89 -10 -222 0 -178 -2 -214 -13 -204
-10 8 -17 7 -25 -1 -9 -9 -12 18 -12 114 0 74 -4 129 -10 133 -5 3 -10 19 -10
36 0 16 -4 29 -9 29 -4 0 -11 -43 -15 -96 -4 -53 -9 -101 -12 -106 -11 -18
-22 4 -29 57 -3 30 -11 57 -16 60 -5 4 -9 17 -9 31 0 13 -4 24 -10 24 -5 0
-10 11 -10 24 0 14 -4 28 -10 31 -5 3 -10 17 -10 30 0 13 -4 26 -9 30 -6 3
-13 26 -17 50 -3 25 -10 48 -15 51 -5 3 -9 16 -9 30 0 13 -4 24 -10 24 -5 0
-10 11 -10 24 0 14 -4 28 -10 31 -5 3 -10 17 -10 30 0 13 -4 26 -10 30 -5 3
-7 12 -4 19 3 8 1 17 -5 21 -6 3 -11 17 -11 30 0 13 -4 27 -10 30 -5 3 -10 17
-10 31 0 13 -4 24 -10 24 -5 0 -10 11 -10 24 0 14 -4 27 -9 30 -5 3 -12 26
-15 51 -11 72 -26 64 -26 -14z m1247 -1368 c-9 -9 -20 -13 -24 -9 -4 4 -1 11
7 16 25 16 35 11 17 -7z m83 -8 c0 -14 -4 -25 -10 -25 -5 0 -10 11 -10 25 0
14 5 25 10 25 6 0 10 -11 10 -25z"></path>
</g>
</svg>