<?xml version="1.0" standalone="no"?>
<!DOCTYPE svg PUBLIC "-//W3C//DTD SVG 20010904//EN"
 "http://www.w3.org/TR/2001/REC-SVG-20010904/DTD/svg10.dtd">
<svg version="1.0" xmlns="http://www.w3.org/2000/svg"
 width="748.000000pt" height="708.000000pt" viewBox="0 0 748.000000 708.000000"
 preserveAspectRatio="xMidYMid meet"> 
<g transform="translate(0.000000,708.000000) scale(0.100000,-0.100000)"
fill="#000000" stroke="none">
<rect x="12" y="12" width="232" height="232" rx="13" fill="#6415FF"/>
<path d="M0 3540 l0 -3540 3740 0 3740 0 0 3540 0 3540 -3740 0 -3740 0 0
-3540z m3258 2709 l307 -142 150 17 c162 18 183 16 233 -21 43 -32 64 -76 71
-146 l6 -59 280 -128 c903 -414 1039 -478 1042 -487 2 -5 -313 -321 -700 -701
l-704 -691 -6 -53 c-4 -29 -7 -79 -7 -110 0 -54 2 -58 23 -57 12 0 288 33 612
73 325 40 592 72 594 70 6 -5 95 62 -869 -653 l-865 -641 -287 0 c-159 0 -288
3 -288 6 0 3 85 103 189 222 135 155 184 218 172 220 -9 1 -241 -18 -515 -43
-275 -25 -507 -45 -517 -45 -11 0 -73 88 -188 265 -94 147 -170 269 -170 273
1 4 38 41 83 82 44 41 128 119 184 172 l104 98 -42 1006 c-23 554 -39 1022
-35 1041 6 34 53 96 87 114 10 6 256 39 546 75 290 35 536 65 547 66 15 2 -30
45 -168 161 -104 86 -186 157 -182 157 3 0 144 -64 313 -141z m-2200 -4341
l-3 -583 -110 0 -110 0 -3 583 -2 582 115 0 115 0 -2 -582z m760 465 l3 -113
-191 0 -190 0 0 -120 0 -120 105 0 106 0 -3 -112 -3 -113 -105 -3 -105 -3 3
-119 3 -120 189 0 189 0 3 -101 3 -102 176 204 c246 284 729 842 740 853 5 6
9 -69 9 -187 l0 -197 -257 -192 c-142 -106 -354 -263 -472 -350 l-214 -158
-298 0 -299 0 0 585 0 585 303 -2 302 -3 3 -112z m372 -219 l0 -337 -70 -81
c-38 -44 -87 -101 -109 -126 l-40 -45 -1 463 0 462 110 0 110 0 0 -336z m1180
329 c-1 -8 -562 -425 -580 -431 -6 -2 -10 77 -10 217 l0 221 295 0 c162 0 295
-3 295 -7z m778 -66 l72 -72 0 -118 0 -117 -115 0 -114 0 -3 73 -3 72 -105 0
-105 0 0 -350 0 -350 105 0 105 0 3 73 3 72 114 0 115 0 0 -118 0 -118 -73
-72 -72 -72 -195 0 -195 0 -72 72 -73 72 0 441 0 440 72 72 72 73 196 0 196 0
72 -73z m887 -42 l0 -110 -110 -5 -110 -5 -3 -468 -2 -468 -113 3 -112 3 -3
468 -2 467 -110 0 -110 0 0 108 c0 60 3 112 7 115 4 4 155 6 337 5 l331 -3 0
-110z m747 48 l68 -67 0 -215 0 -215 -67 -68 -67 -67 62 -223 c34 -123 62
-229 62 -235 0 -10 -30 -13 -114 -13 l-114 0 -16 53 c-9 28 -39 134 -68 235
l-52 182 -33 0 -33 0 -2 -232 -3 -233 -110 0 -110 0 -3 570 c-1 314 0 576 3
583 3 9 66 12 267 12 l262 0 68 -67z m826 -6 l72 -72 0 -440 0 -441 -73 -72
-72 -72 -195 0 -195 0 -72 72 -73 72 0 441 0 440 72 72 72 73 196 0 196 0 72
-73z m-3210 -64 l-3 -98 -133 -1 c-73 -1 -132 2 -130 7 5 13 241 188 256 188
10 1 12 -22 10 -96z m-388 -258 l0 -75 105 0 105 0 0 -115 0 -115 -105 0 -105
0 0 -115 0 -115 193 -2 192 -3 0 -115 0 -115 -307 -3 -308 -2 0 340 0 340 23
19 c44 39 192 150 200 150 4 1 7 -33 7 -74z m-584 -545 l215 0 -3 -112 -3
-113 -332 -3 -333 -2 0 42 c0 43 1 43 107 121 59 43 113 75 121 72 7 -3 110
-5 228 -5z m-1296 -360 l0 -40 -125 0 -125 0 0 -75 0 -75 105 0 105 0 0 -40 0
-40 -105 0 -105 0 0 -110 0 -110 -40 0 -40 0 0 265 0 265 165 0 165 0 0 -40z
m190 -225 l0 -265 -45 0 -45 0 0 265 0 265 45 0 45 0 0 -265z m229 178 c25
-46 49 -83 53 -83 4 0 28 38 53 85 l47 85 44 0 c24 0 44 -2 44 -4 0 -3 -33
-62 -74 -131 l-74 -126 79 -132 79 -132 -42 -3 c-49 -4 -49 -3 -109 106 -22
39 -43 72 -47 72 -4 0 -30 -40 -57 -90 l-50 -90 -48 0 -49 0 20 33 c71 118
132 227 132 235 0 6 -26 57 -58 114 -95 167 -91 150 -36 146 l47 -3 46 -82z
m829 62 c56 -26 57 -29 20 -79 -14 -17 -16 -17 -45 -2 -50 25 -106 30 -141 12
-18 -9 -32 -22 -33 -29 0 -6 -2 -20 -4 -29 -6 -34 27 -57 105 -73 41 -9 85
-23 98 -31 88 -58 82 -212 -10 -261 -51 -26 -170 -24 -230 5 -67 33 -74 45
-48 80 l22 30 46 -24 c60 -32 152 -34 182 -4 25 25 26 72 2 93 -9 8 -48 21
-86 28 -38 7 -83 22 -100 34 -37 24 -66 78 -66 120 0 48 40 116 80 137 52 27
142 24 208 -7z m435 11 c39 -16 82 -61 96 -99 6 -16 11 -87 11 -158 0 -110 -3
-136 -20 -169 -66 -129 -257 -126 -328 4 -25 48 -24 286 3 340 39 80 152 119
238 82z m327 -211 l0 -225 125 0 125 0 0 -40 0 -40 -165 0 -165 0 0 265 0 265
40 0 40 0 0 -225z m440 40 c0 -234 12 -265 105 -265 27 0 44 8 66 29 l29 29 0
196 0 196 45 0 45 0 0 -182 c0 -101 -5 -200 -11 -221 -33 -121 -174 -171 -281
-101 -70 45 -78 76 -78 304 l0 200 40 0 40 0 0 -185z m740 145 l0 -40 -70 0
-70 0 0 -225 0 -225 -40 0 -40 0 0 225 0 225 -70 0 -70 0 0 40 0 40 180 0 180
0 0 -40z m180 -225 l0 -265 -40 0 -40 0 0 265 0 265 40 0 40 0 0 -265z m400
246 c19 -10 49 -37 65 -60 30 -43 30 -43 30 -184 0 -157 -7 -182 -65 -231 -86
-71 -218 -49 -276 47 -15 26 -19 56 -22 156 -3 75 0 139 7 162 14 48 56 98 96
115 44 19 124 17 165 -5z m424 -165 l111 -179 3 181 2 182 40 0 40 0 0 -265 0
-265 -38 0 -39 0 -109 177 -109 177 -3 -177 -2 -177 -45 0 -45 0 0 266 0 265
42 -3 42 -3 110 -179z m633 155 l43 -21 -23 -35 c-15 -24 -27 -33 -37 -29 -60
26 -104 36 -134 30 -38 -7 -52 -20 -61 -57 -11 -42 19 -67 105 -84 41 -9 85
-23 98 -31 85 -56 81 -207 -8 -258 -68 -40 -236 -20 -285 34 -16 17 -16 20 5
48 l22 30 46 -24 c67 -36 167 -31 194 10 14 20 8 63 -9 79 -10 8 -48 21 -86
27 -79 14 -125 42 -150 90 -37 71 -3 174 67 206 45 21 160 13 213 -15z"/>
<path d="M2800 5898 c-311 -38 -567 -71 -569 -73 -9 -10 31 -797 41 -821 8
-18 9 -27 1 -32 -7 -5 -1 -236 22 -777 19 -423 34 -771 34 -772 1 -2 168 -3
372 -3 359 0 372 1 400 21 46 33 89 41 116 24 13 -9 23 -22 23 -30 0 -12 14
-15 66 -15 60 0 67 2 90 29 14 16 41 35 61 42 45 14 186 6 258 -15 27 -9 51
-14 52 -12 3 3 59 1411 79 1981 l7 190 -201 168 c-194 161 -203 167 -244 166
-24 -1 -297 -33 -608 -71z m235 -815 c4 38 11 64 17 61 5 -3 8 -16 7 -27 -3
-42 3 -162 8 -144 2 9 9 14 15 11 7 -5 9 14 6 57 -3 35 3 125 12 199 l16 135
7 -64 c4 -35 7 -96 7 -136 0 -64 2 -73 20 -78 18 -5 19 -2 14 34 -9 52 6 201
17 174 4 -11 8 -58 8 -104 1 -69 3 -81 14 -72 11 8 16 5 25 -15 18 -39 14 -61
-15 -82 -25 -18 -26 -21 -10 -27 21 -9 50 1 43 14 -3 5 1 14 9 21 13 10 15 9
15 -9 0 -19 3 -20 21 -10 18 9 24 8 30 -4 5 -9 18 -13 32 -10 28 5 41 -22 25
-51 -24 -42 5 -19 94 77 82 87 258 239 258 222 0 -3 -61 -74 -136 -158 -128
-143 -135 -152 -109 -155 20 -3 25 -8 20 -19 -8 -22 12 -33 60 -34 80 -1 84
-16 6 -24 -61 -6 -74 -11 -79 -27 -3 -11 -10 -17 -18 -14 -8 3 -14 -1 -14 -8
0 -8 -5 -16 -12 -18 -7 -3 -9 -11 -3 -24 4 -10 7 -25 6 -33 -1 -7 2 -10 9 -6
6 4 17 1 25 -5 9 -7 22 -9 32 -4 10 4 32 8 48 9 29 1 30 3 28 43 l-2 42 47 0
c28 0 58 7 72 17 24 16 24 15 -2 -13 -15 -16 -41 -63 -58 -104 -36 -84 -50
-105 -50 -73 0 32 -16 37 -34 11 -11 -16 -12 -24 -4 -29 6 -4 8 -16 5 -28 -4
-15 3 -28 25 -46 34 -28 30 -32 -11 -10 -26 13 -30 13 -41 -1 -15 -17 -15 -16
28 -38 17 -9 32 -21 32 -26 0 -14 -5 -13 -50 10 -22 11 -40 16 -40 11 0 -20
-36 -16 -53 6 -10 13 -23 23 -28 23 -14 0 -11 -37 4 -44 10 -5 10 -7 0 -12 -7
-3 -13 -18 -13 -34 0 -30 -7 -28 140 -47 50 -6 52 -7 25 -14 -16 -4 -52 -10
-79 -14 l-48 -7 34 -36 c44 -47 221 -282 216 -287 -2 -2 -63 41 -137 96 -73
56 -135 98 -138 96 -13 -14 16 -57 81 -122 l73 -72 -85 39 c-50 23 -88 35 -92
29 -3 -6 -34 26 -70 71 -35 45 -66 76 -68 70 -2 -6 2 -21 9 -34 11 -21 11 -22
-4 -9 -15 12 -17 10 -17 -25 0 -22 -3 -49 -6 -61 -5 -18 0 -26 25 -40 17 -10
31 -22 31 -27 0 -5 18 -37 40 -71 36 -55 85 -173 77 -182 -9 -8 -96 138 -117
195 -12 34 -27 62 -33 62 -7 0 -7 -4 1 -12 21 -21 13 -30 -18 -23 -35 8 -36 5
-11 -66 17 -52 34 -202 21 -194 -4 2 -15 31 -25 65 -30 100 -39 75 -31 -92 4
-84 5 -150 2 -147 -2 2 -29 77 -60 167 -68 200 -71 206 -85 172 -9 -20 -10
-12 -5 35 3 33 8 69 10 80 2 11 -7 -2 -21 -30 l-24 -50 4 55 c2 30 7 76 11
101 4 28 2 49 -4 52 -5 4 -12 -19 -17 -56 l-7 -62 -16 33 c-9 17 -20 32 -25
32 -5 0 -16 -18 -24 -40 -20 -51 -33 -51 -33 -1 0 26 -7 46 -22 62 -22 23 -30
61 -16 74 3 3 40 6 82 6 69 0 76 2 76 20 0 13 -4 18 -12 13 -16 -10 -58 -12
-58 -3 0 4 6 14 13 21 8 7 17 27 21 43 8 29 8 29 17 8 11 -29 14 -29 17 0 1
16 -7 28 -26 39 -25 14 -30 14 -67 -2 -22 -10 -48 -26 -57 -36 -9 -11 -27 -30
-39 -43 -15 -17 -24 -20 -32 -12 -18 18 -45 13 -52 -9 -9 -27 -25 -26 -22 2 2
18 -6 24 -47 36 -63 18 -131 3 -121 -28 4 -14 -5 -26 -40 -50 -46 -32 -52 -30
-35 14 5 14 7 26 5 26 -2 0 -30 -11 -61 -25 -32 -14 -58 -24 -60 -22 -2 1 63
54 143 117 117 92 148 122 155 147 5 18 13 32 20 30 6 -1 13 4 15 11 9 24 -18
11 -56 -27 -21 -21 -67 -58 -101 -81 l-63 -43 7 29 8 29 -26 -28 c-27 -29 -72
-51 -87 -41 -30 18 22 98 73 110 23 5 29 2 36 -17 8 -22 9 -21 20 10 16 46 8
53 -39 34 -22 -8 -42 -13 -46 -10 -13 13 7 34 47 50 35 13 41 14 36 2 -7 -20
-9 -20 81 16 61 24 82 28 95 20 16 -10 18 -7 18 29 0 31 4 40 18 40 15 1 15 2
-2 12 -14 8 -37 7 -87 -2 -97 -18 -123 -1 -79 51 17 21 21 22 30 9 9 -12 10
-9 4 10 -4 14 -7 41 -6 61 1 28 -4 39 -21 46 -21 10 -221 154 -242 175 -5 6
14 -2 43 -16 48 -24 98 -47 112 -51 3 0 61 -29 129 -64 68 -34 125 -60 128
-57 9 9 -8 26 -28 26 -10 0 -19 6 -19 14 0 9 7 12 20 9 11 -3 20 -9 20 -13 0
-11 43 -27 63 -22 25 5 21 14 -18 41 -19 13 -32 27 -30 32 3 4 -24 31 -60 59
-36 29 -65 54 -65 56 0 2 54 -23 120 -56 66 -33 122 -60 125 -60 3 0 5 12 5
26 0 14 -4 22 -10 19 -16 -10 -50 14 -50 35 0 24 31 41 80 43 21 1 36 5 35 8
-2 3 -6 39 -9 80 -3 41 -15 101 -26 134 -19 56 -51 243 -49 289 0 12 41 -98
89 -243 l88 -264 7 66z m347 310 c24 -21 23 -60 -1 -73 -51 -27 -201 -1 -201
35 0 42 163 73 202 38z"/>
<path d="M5410 2140 l0 -120 110 0 111 0 -3 118 -3 117 -107 3 -108 3 0 -121z"/>
<path d="M6230 1905 l0 -356 108 3 107 3 0 350 0 350 -107 3 -108 3 0 -356z"/>
<path d="M2692 1137 c-42 -24 -52 -60 -52 -184 0 -113 0 -115 29 -144 59 -59
151 -29 166 54 4 20 5 79 3 131 -3 87 -5 98 -29 121 -30 30 -85 41 -117 22z"/>
<path d="M4770 1137 c-41 -20 -60 -71 -60 -163 0 -45 3 -95 6 -113 16 -79 108
-109 163 -53 23 22 30 40 35 95 8 69 0 170 -16 199 -10 21 -59 48 -85 48 -10
0 -29 -6 -43 -13z"/>
</g>
</svg>
