 <svg version="1.0" xmlns="http://www.w3.org/2000/svg" width="700.000000pt" height="641.000000pt" viewBox="0 0 700.000000 641.000000" preserveAspectRatio="xMidYMid meet">
<metadata>
Created by potrace 1.12, written by Peter Selinger 2001-2015
</metadata>
<g transform="translate(0.000000,641.000000) scale(0.100000,-0.100000)" fill="#000000" stroke="none">
<path d="M3444 5328 c20 -18 49 -43 64 -55 15 -13 41 -34 57 -49 17 -14 45
-37 63 -51 51 -41 43 -53 -37 -53 -39 0 -72 -4 -75 -9 -3 -4 -43 -11 -88 -14
-46 -4 -119 -11 -163 -17 -44 -6 -118 -16 -165 -21 -47 -5 -116 -14 -155 -19
-38 -5 -101 -12 -140 -16 -84 -7 -128 -26 -161 -69 l-25 -33 5 -198 c3 -110
10 -296 16 -414 12 -281 26 -624 35 -937 l8 -252 -84 -78 c-46 -43 -117 -110
-158 -149 l-74 -71 67 -104 c36 -57 74 -115 84 -127 9 -13 28 -43 42 -66 48
-81 94 -146 108 -151 8 -3 83 1 166 10 83 8 178 17 211 19 187 15 311 26 395
35 122 14 150 14 150 0 0 -7 -26 -41 -57 -77 -32 -35 -78 -89 -103 -118 -98
-115 -465 -541 -491 -569 -97 -108 -153 -171 -219 -250 -41 -49 -93 -110 -115
-135 -99 -111 -147 -171 -142 -177 6 -6 49 22 107 69 19 16 40 32 45 36 6 4
33 24 60 44 28 20 91 68 142 105 51 37 199 148 330 245 292 218 570 424 603
448 14 10 97 72 185 137 88 66 234 174 325 241 91 67 176 131 190 141 36 28
186 139 357 265 81 60 172 128 201 150 119 91 168 126 190 136 46 20 11 27
-75 14 -48 -8 -111 -14 -140 -14 -28 0 -55 -4 -58 -10 -3 -5 -28 -10 -54 -10
-26 0 -97 -7 -157 -16 -60 -8 -149 -19 -199 -24 -128 -13 -243 -27 -294 -36
l-44 -7 6 96 c3 52 10 103 15 114 11 20 914 923 936 935 8 4 71 65 140 134
113 112 145 154 117 154 -5 0 -52 20 -104 45 -53 25 -98 45 -101 45 -2 0 -58
25 -123 56 -65 31 -143 67 -173 81 -30 13 -72 33 -93 44 -22 10 -45 19 -53 19
-8 0 -14 5 -14 10 0 6 -6 10 -13 10 -6 0 -48 17 -92 38 -44 21 -144 67 -222
102 l-143 64 0 44 c0 55 -32 117 -73 143 -27 17 -43 19 -102 14 -251 -20 -215
-24 -360 47 -69 34 -303 138 -310 138 -4 0 9 -15 29 -32z m706 -246 c0 -10 -6
-27 -14 -37 -13 -18 -14 -18 -50 4 -52 33 -48 51 14 51 42 0 50 -3 50 -18z
m-339 -55 c54 -48 103 -89 217 -180 l103 -82 -7 -165 c-12 -292 -25 -689 -30
-915 -2 -121 -8 -231 -13 -245 -5 -14 -9 -92 -10 -175 -1 -176 -10 -412 -17
-437 -5 -17 -44 -18 -634 -18 l-629 0 -5 33 c-7 48 -38 771 -61 1437 -2 69 -9
241 -16 383 -6 142 -8 261 -4 265 3 3 41 10 83 14 42 4 95 10 117 13 262 34
434 55 520 61 39 3 74 10 80 15 5 5 34 9 65 10 30 0 73 4 95 8 80 17 108 13
146 -22z m488 -413 c17 -14 31 -31 31 -38 0 -16 -69 -106 -81 -106 -5 0 -9 38
-9 85 0 96 7 103 59 59z"></path>
<path d="M3280 4516 c0 -20 9 -62 19 -94 21 -61 43 -200 35 -214 -3 -4 -12 -8
-20 -8 -18 0 -18 -9 3 -32 13 -15 14 -22 4 -45 -9 -19 -15 -23 -23 -15 -8 8
-15 8 -24 1 -9 -7 -25 -4 -54 11 -23 12 -44 19 -47 17 -8 -9 26 -53 52 -67 47
-25 39 -69 -10 -50 -15 6 -35 8 -45 5 -9 -3 -60 15 -114 41 -126 60 -135 55
-31 -19 18 -13 24 -24 20 -40 -4 -13 -1 -36 6 -52 l13 -30 5 40 c5 30 11 41
27 43 36 5 54 -28 56 -105 0 -39 -2 -75 -6 -82 -4 -6 -23 -11 -42 -11 -19 0
-42 -4 -52 -9 -9 -5 -25 -12 -35 -15 -9 -3 -20 -14 -23 -23 -3 -10 -10 -26
-15 -35 -5 -10 -9 -27 -9 -39 l0 -20 28 19 c15 11 47 39 71 61 24 23 53 41 63
41 24 0 23 -12 -2 -35 -11 -10 -20 -25 -20 -34 0 -9 -38 -45 -85 -80 -79 -60
-99 -81 -76 -81 5 0 11 -10 14 -22 6 -21 7 -21 26 -4 11 10 17 24 15 31 -7 17
49 39 83 32 16 -3 56 -10 91 -16 l62 -11 31 34 c35 41 89 62 117 47 36 -19 42
-35 26 -65 -8 -17 -11 -33 -5 -40 4 -6 14 -35 21 -64 10 -42 10 -59 0 -83 -13
-30 -6 -54 9 -30 13 20 23 -3 15 -34 -4 -15 -1 -34 8 -48 8 -12 25 -56 38 -97
13 -41 27 -79 32 -85 4 -5 8 -19 8 -32 0 -13 5 -23 11 -23 8 0 10 22 6 73 -8
105 8 164 28 105 7 -22 8 -22 12 6 3 16 0 33 -6 39 -6 6 -11 28 -11 49 0 28 5
40 21 49 l21 11 -21 19 c-22 21 -26 31 -14 42 3 4 8 19 9 34 5 49 14 73 27 73
6 -1 31 -25 55 -54 34 -41 54 -56 93 -68 l49 -16 -35 42 c-33 41 -46 86 -25
86 6 0 42 -25 82 -55 67 -51 88 -63 88 -49 0 12 -61 94 -110 147 -48 53 -61
77 -40 77 6 0 10 5 10 10 0 6 -9 10 -20 10 -20 0 -22 6 -34 78 -7 40 15 53 44
27 16 -15 22 -15 35 -5 8 7 15 21 15 31 0 10 9 23 20 29 17 9 18 14 8 30 -10
16 -9 24 10 49 12 17 22 36 22 43 -1 9 -5 7 -14 -4 -8 -11 -20 -15 -34 -11
-16 4 -22 1 -22 -10 0 -21 -19 -32 -33 -18 -6 6 -17 32 -24 59 l-12 47 37 36
c35 33 37 38 24 58 -8 11 -21 21 -28 21 -23 0 -16 13 36 70 121 130 104 142
-20 15 -52 -52 -97 -95 -101 -95 -4 0 -5 16 -2 35 5 29 3 34 -10 30 -8 -4 -18
-1 -22 5 -4 7 -27 9 -66 4 l-59 -7 0 32 c0 28 3 31 21 26 17 -6 20 -3 17 16
-3 27 -38 40 -38 15 0 -19 -1 -19 -34 -6 -21 8 -26 16 -26 45 0 19 -4 35 -10
35 -6 0 -10 -40 -10 -100 0 -81 -3 -100 -14 -100 -20 0 -65 98 -116 255 -23
72 -44 132 -46 134 -2 2 -4 -12 -4 -33z"></path>
<path d="M3527 4393 c-11 -10 -8 -51 3 -58 6 -4 10 8 10 29 0 37 -2 41 -13 29z"></path>
<path d="M3930 4349 c0 -5 5 -7 10 -4 6 3 10 8 10 11 0 2 -4 4 -10 4 -5 0 -10
-5 -10 -11z"></path>
<path d="M3915 4028 c-8 -29 -13 -73 -8 -85 7 -18 20 -16 27 5 23 64 25 76 13
84 -17 11 -27 10 -32 -4z"></path>
<path d="M2910 3760 c0 -5 5 -10 10 -10 6 0 10 5 10 10 0 6 -4 10 -10 10 -5 0
-10 -4 -10 -10z"></path>
<path d="M3325 3496 c-14 -10 -24 -11 -32 -4 -19 15 -16 5 11 -46 24 -45 24
-45 42 -25 16 18 20 19 30 5 15 -22 24 -9 24 36 0 26 -4 38 -14 38 -8 0 -20 2
-28 5 -7 3 -22 -1 -33 -9z"></path>
</g>
</svg>