<?xml version="1.0" standalone="no"?>
<!DOCTYPE svg PUBLIC "-//W3C//DTD SVG 20010904//EN"
 "http://www.w3.org/TR/2001/REC-SVG-20010904/DTD/svg10.dtd">
<svg version="1.0" xmlns="http://www.w3.org/2000/svg"
 width="740.000000pt" height="740.000000pt" viewBox="0 0 740.000000 740.000000"
 preserveAspectRatio="xMidYMid meet">
<metadata>
Created by potrace 1.16, written by Peter Selinger 2001-2019
</metadata>
<g transform="translate(0.000000,740.000000) scale(0.100000,-0.100000)"
fill="#000000" stroke="none">
<path d="M2335 5859 c-46 -38 -51 -47 -72 -123 -27 -103 -52 -161 -98 -227
-20 -30 -52 -81 -71 -115 -30 -55 -39 -62 -72 -68 -52 -9 -66 -19 -59 -48 17
-67 273 -133 376 -97 45 16 42 50 -6 80 -21 12 -40 24 -42 26 -3 2 44 98 55
112 2 2 25 4 52 5 75 3 94 26 89 110 -1 37 -8 70 -14 74 -6 4 -20 26 -32 50
-12 23 -25 41 -29 38 -4 -2 -9 6 -10 20 -1 13 2 24 7 24 12 0 31 71 31 117 0
74 -32 81 -105 22z"/>
<path d="M3753 5808 c-50 -26 -203 -138 -273 -201 l-52 -47 20 -24 c11 -14 56
-65 101 -113 l81 -87 44 49 c24 28 71 73 105 100 65 53 79 88 40 100 -12 4
-18 12 -15 21 8 22 -4 44 -25 44 -15 0 -18 5 -13 24 4 17 0 28 -15 38 -20 14
-20 15 19 53 37 36 51 65 33 65 -5 0 -27 -10 -50 -22z"/>
<path d="M2100 4835 c-22 -53 -41 -85 -50 -85 -8 0 -58 11 -110 25 -52 14
-102 25 -111 25 -13 0 -22 -31 -46 -150 l-30 -150 21 -5 c12 -2 52 -9 90 -14
37 -6 70 -12 73 -15 3 -2 0 -13 -6 -24 -22 -42 -19 -42 205 -40 l216 3 102
240 c56 132 105 248 109 258 6 16 -8 17 -211 17 l-217 0 -35 -85z"/>
<path d="M2043 2848 c-6 -7 -13 -22 -17 -32 -3 -10 -9 -16 -12 -13 -3 3 -18
-7 -33 -21 -15 -15 -54 -51 -86 -81 l-59 -54 27 -21 c15 -12 52 -35 83 -50 64
-33 112 -31 150 5 60 56 56 123 -12 198 -38 43 -44 54 -34 66 7 8 10 15 7 15
-2 0 -9 -6 -14 -12z"/>
<path d="M2857 1753 c-24 -4 -28 -8 -24 -26 3 -12 13 -62 23 -112 9 -49 23
-102 31 -117 15 -31 48 -52 65 -42 7 4 8 3 4 -4 -13 -21 73 -14 104 8 46 33
54 73 34 185 -15 85 -20 98 -41 106 -24 9 -141 10 -196 2z"/>
</g>
</svg>
